<?xml version="1.0" encoding="utf-8"?>
<!-- Generator: Adobe Illustrator 24.0.1, SVG Export Plug-In . SVG Version: 6.00 Build 0)  -->

<svg version="1.1" id="Capa_1" xmlns="http://www.w3.org/2000/svg" xmlns:xlink="http://www.w3.org/1999/xlink" x="0px" y="0px"
	 viewBox="0 0 56 54.6" style="enable-background:new 0 0 56 54.6;" xml:space="preserve">
	<style type="text/css">
		svg {
		fill: #868e96;
		width: 56px;
		height: 56px;
		}
		svg:hover {
		fill: #cd928d;
		}
	</style>
<path class="icon" d="M0,0v54.6h56V0H0z M2.3,2.3h51.3v49.9H2.3V2.3z M13.5,12.8c0-0.2,0.3-0.3,0.5-0.3c1.5-0.1,3.7-0.1,6-0.1
	c6.5,0,9,3.5,9,8.1c0,5.9-4.3,8.5-9.6,8.5c-0.9,0-1.2,0-1.8,0v9c0,0.2-0.1,0.3-0.3,0.3h-3.6c-0.2,0-0.3-0.1-0.3-0.3V12.8L13.5,12.8z
	 M17.7,25.2c0.5,0,1,0,1.9,0c2.7,0,5.3-1,5.3-4.7c0-3-1.8-4.5-4.9-4.5c-0.9,0-1.8,0-2.2,0.1L17.7,25.2L17.7,25.2z M37.8,22.4
	c-1.8,0-2.5,0.9-2.5,1.7c0,0.8,0.4,1.4,2.9,2.7c3.7,1.8,4.8,3.5,4.8,6c0,3.7-2.8,5.7-6.7,5.7c-2,0-3.8-0.4-4.8-1
	c-0.2-0.1-0.2-0.2-0.2-0.4v-3.4c0-0.2,0.1-0.3,0.3-0.2c1.5,1,3.1,1.4,4.7,1.4c1.8,0,2.6-0.8,2.6-1.8c0-0.8-0.5-1.6-2.9-2.8
	c-3.3-1.6-4.7-3.2-4.7-5.9c0-3,2.4-5.5,6.4-5.5c2,0,3.4,0.3,4.2,0.7c0.2,0.1,0.2,0.3,0.2,0.5v3.2c0,0.2-0.1,0.3-0.4,0.2
	C40.8,22.8,39.3,22.4,37.8,22.4L37.8,22.4z"/>
</svg>
