<?xml version="1.0" encoding="utf-8"?>
<!-- Generator: Adobe Illustrator 24.0.1, SVG Export Plug-In . SVG Version: 6.00 Build 0)  -->
<svg version="1.1" id="Layer_1" xmlns="http://www.w3.org/2000/svg" xmlns:xlink="http://www.w3.org/1999/xlink" x="0px" y="0px"
	 viewBox="0 0 56 54.6" style="enable-background:new 0 0 56 54.6;" xml:space="preserve">
	<style type="text/css">
		svg {
		fill: #868e96;
		width: 56px;
		height: 56px;
		}
		svg:hover {
		fill: #cd928d;
		}
	</style>
<path class="icon" d="M2.3,2.3h51.3v49.9H2.3V2.3z M0,54.6h56V0H0V54.6z M36.7,19.5c0-0.2,0.1-0.3,0.3-0.3h3.7c0.2,0,0.3,0.1,0.3,0.3
	v18.4c0,0.2,0,0.3-0.3,0.3H37c-0.2,0-0.3-0.1-0.3-0.3V19.5L36.7,19.5L36.7,19.5z M36.4,14.2c0-1.5,1.1-2.4,2.4-2.4
	c1.4,0,2.4,1,2.4,2.4c0,1.5-1,2.4-2.4,2.4C37.4,16.6,36.4,15.7,36.4,14.2z M25.9,27.1c-0.7-2.6-2.2-8.2-2.8-11l0,0
	c-0.5,2.7-1.7,7.3-2.7,11H25.9L25.9,27.1z M19.4,30.9l-1.8,7c0,0.2-0.1,0.2-0.3,0.2h-3.4c-0.2,0-0.3-0.1-0.2-0.3l6.6-23.2
	c0.1-0.4,0.2-0.8,0.2-1.9c0-0.2,0.1-0.2,0.2-0.2h4.9c0.2,0,0.2,0,0.3,0.2l7.4,25.2c0,0.2,0,0.3-0.2,0.3h-3.9c-0.2,0-0.3,0-0.3-0.2
	L27,31L19.4,30.9L19.4,30.9z"/>
</svg>
