<?xml version="1.0" encoding="utf-8"?>
<!-- Generator: Adobe Illustrator 24.0.1, SVG Export Plug-In . SVG Version: 6.00 Build 0)  -->
<svg version="1.1" id="Livello_1" xmlns="http://www.w3.org/2000/svg" xmlns:xlink="http://www.w3.org/1999/xlink" x="0px" y="0px"
	 viewBox="0 0 56 54.6" style="enable-background:new 0 0 56 54.6;" xml:space="preserve">
	<style type="text/css">
		svg {
		fill: #868e96;
		width: 56px;
		height: 56px;
		}
		svg:hover {
		fill: #cd928d;
		}
	</style>
<path class="icon" d="M56,0v54.6H0V0H56z M2.3,2.3v49.9h51.3V2.3H2.3z M20.5,37.9V12.8c0-0.1,0-0.2,0-0.2c0,0-0.1,0-0.2,0h-3.6
	c-0.1,0-0.2,0-0.2,0.1c0,0-0.1,0.2-0.1,0.2v25.1c0,0.1,0,0.2,0.1,0.2s0.2,0.1,0.2,0.1h3.6c0.2,0,0.2,0,0.3,0
	C20.5,38.1,20.5,38,20.5,37.9L20.5,37.9z M24.6,28.8c0,3.3,0.8,5.7,2.5,7.3c1.7,1.6,3.8,2.4,6.4,2.4c1,0,2-0.1,3.1-0.3
	c1-0.2,2-0.6,3-1.1c0.1,0,0.1-0.1,0.2-0.1c0,0,0-0.1,0-0.2c-0.1-0.4-0.1-0.8-0.1-1.3c0-0.4,0-0.8,0-1.1V12.7c0-0.1,0-0.1,0-0.2
	c0,0-0.1,0-0.2,0h-3.9c0,0-0.1,0-0.2,0c0,0-0.1,0.1-0.1,0.2v6.2c-0.2,0-0.4,0-0.6,0c-0.2,0-0.4,0-0.6,0c-3,0-5.3,0.9-7,2.9
	C25.4,23.7,24.6,26,24.6,28.8L24.6,28.8z M35.4,22.7v11.8c-0.2,0.1-0.5,0.2-0.8,0.2c-0.3,0-0.6,0-0.9,0c-1.4,0-2.5-0.5-3.4-1.4
	c-0.9-0.9-1.4-2.5-1.4-4.7c0-2,0.5-3.5,1.4-4.5c0.9-1.1,2.2-1.6,3.7-1.6c0.3,0,0.5,0,0.8,0C35,22.6,35.3,22.6,35.4,22.7L35.4,22.7z"
	/>
</svg>
