<?xml version="1.0" encoding="utf-8"?>
<!-- Generator: Adobe Illustrator 24.0.1, SVG Export Plug-In . SVG Version: 6.00 Build 0)  -->
<svg version="1.1" id="Capa_1" xmlns="http://www.w3.org/2000/svg" xmlns:xlink="http://www.w3.org/1999/xlink" x="0px" y="0px"
	 viewBox="0 0 56 54.6" style="enable-background:new 0 0 56 54.6;" xml:space="preserve">
	<style type="text/css">
		svg {
		fill: #868e96;
		width: 56px;
		height: 56px;
		-webkit-transition: fill cubic-bezier(0.25, 0.46, 0.45, 0.94) 400ms;
 		-moz-transition: fill cubic-bezier(0.25, 0.46, 0.45, 0.94) 400ms;
 		transition: fill cubic-bezier(0.25, 0.46, 0.45, 0.94) 400ms;
		}
		svg:hover {
		fill: #e657aa;
		}
	</style>
<path class="icon" d="M0,0v54.6h56V0H0z M2.3,2.3h51.3v49.9H2.3V2.3z M15.8,30.9l-1.8,7c0,0.2-0.1,0.3-0.4,0.3h-3.4
	c-0.2,0-0.3-0.1-0.2-0.4l6.6-23.2c0.1-0.4,0.2-0.7,0.2-1.9c0-0.2,0.1-0.2,0.2-0.2h4.9c0.2,0,0.2,0,0.3,0.2l7.4,25.1
	c0,0.2,0,0.3-0.2,0.3h-3.8c-0.2,0-0.3-0.1-0.4-0.2l-1.9-7H15.8L15.8,30.9z M22.4,27.1c-0.7-2.6-2.2-8.2-2.8-11h0
	c-0.5,2.7-1.8,7.4-2.7,11C16.8,27.1,22.4,27.1,22.4,27.1z M34.9,29.5c0,3.2,1.5,5.3,5.1,5.3c1.4,0,2.6-0.2,3.8-0.7
	c0.2-0.1,0.3,0,0.3,0.2v2.9c0,0.2-0.1,0.3-0.2,0.5c-1.2,0.6-2.8,0.9-4.7,0.9c-6.2,0-8.5-4.5-8.5-9.6c0-5.5,2.8-10,7.9-10
	c5.1,0,6.9,4.3,6.9,7.7c0,1.1-0.1,2-0.2,2.5c0,0.2-0.1,0.3-0.3,0.3c-0.5,0.1-1.8,0.2-3.9,0.2L34.9,29.5L34.9,29.5z M39.6,26.3
	c1.2,0,1.6,0,1.7,0c0-0.2,0-0.3,0-0.4c0-1.3-0.6-3.6-3-3.6c-2.2,0-3.2,2-3.4,4H39.6L39.6,26.3z"/>
</svg>
