<?xml version="1.0" encoding="utf-8"?>
<!-- Generator: Adobe Illustrator 24.0.1, SVG Export Plug-In . SVG Version: 6.00 Build 0)  -->
<svg version="1.1" id="Livello_1" xmlns="http://www.w3.org/2000/svg" xmlns:xlink="http://www.w3.org/1999/xlink" x="0px" y="0px"
	 viewBox="0 0 52 54.6" style="enable-background:new 0 0 52 54.6;" xml:space="preserve">
<style type="text/css">
	svg {
		fill: #868e96;
		width: auto;
		height: 56px;
		-webkit-transition: fill cubic-bezier(0.25, 0.46, 0.45, 0.94) 400ms;
 		-moz-transition: fill cubic-bezier(0.25, 0.46, 0.45, 0.94) 400ms;
 		transition: fill cubic-bezier(0.25, 0.46, 0.45, 0.94) 400ms;
		}
		svg:hover {
		fill: #e657aa;
		}
</style>
<g>
	<path class="st0" d="M51.2,8.7L26.3,0.3c-0.2-0.1-0.5-0.1-0.8,0L0.8,8.9C0.3,9.1-0.1,9.6,0,10.2l3.9,32.1c0,0.4,0.3,0.7,0.6,0.9
		l20.9,11.3c0.2,0.1,0.4,0.1,0.6,0.1c0.2,0,0.4,0,0.6-0.1l21-11.5c0.3-0.2,0.6-0.5,0.6-0.9L52,10C52.1,9.4,51.8,8.9,51.2,8.7z
		 M36.1,39.3l-3.3-6.3H19.2l-3.3,6.3h-5.2L26,6.1l15.4,33.2H36.1z"/>
	<path class="st0" d="M30.6,26.8l-4.6-10l-4.6,10H30.6z"/>
</g>
</svg>
