<?xml version="1.0" encoding="utf-8"?>
<!-- Generator: Adobe Illustrator 24.0.1, SVG Export Plug-In . SVG Version: 6.00 Build 0)  -->
<svg version="1.1" id="Livello_1" xmlns="http://www.w3.org/2000/svg" xmlns:xlink="http://www.w3.org/1999/xlink" x="0px" y="0px"
	 viewBox="0 0 49.6 54.6" style="enable-background:new 0 0 49.6 54.6;" xml:space="preserve">
	<style type="text/css">
		svg {
		fill: #868e96;
		width: auto;
		height: 56px;
		-webkit-transition: fill cubic-bezier(0.25, 0.46, 0.45, 0.94) 400ms;
 		-moz-transition: fill cubic-bezier(0.25, 0.46, 0.45, 0.94) 400ms;
 		transition: fill cubic-bezier(0.25, 0.46, 0.45, 0.94) 400ms;
		}
		svg:hover {
		fill: #e657aa;
		}
	</style>
<g>
	<g>
		<path class="st0" d="M1,1.1l4.2,47.4c0,0.4,0.3,0.8,0.7,0.9l18.6,5.2c0.2,0.1,0.4,0.1,0.6,0l18.6-5.2c0.4-0.1,0.7-0.5,0.7-0.9
			l4.2-47.4c0.1-0.6-0.4-1.1-1-1.1H2C1.4,0,1,0.5,1,1.1z M39.4,16.1l-0.5,6.2l-1.6,17.8c0,0.4-0.3,0.8-0.7,0.9l-11.7,3.2l0,0
			L13.1,41c-0.4-0.1-0.7-0.5-0.7-0.9l-0.7-7.9c-0.1-0.6,0.4-1.1,1-1.1h4c0.5,0,1,0.4,1,0.9l0.3,3.4c0,0.4,0.3,0.8,0.8,0.9l6,1.6l0,0
			l6.1-1.6c0.4-0.1,0.7-0.5,0.8-0.9l0.7-6.5c0.1-0.6-0.4-1.1-1-1.1l-19.1,0.1c-0.5,0-1-0.4-1-0.9l-0.4-3.7c-0.1-0.6,0.4-1.1,1-1.1
			L32.1,22c0.5,0,1-0.4,1-0.9l0.3-4.1c0-0.6-0.4-1.1-1-1.1L11.1,16c-0.5,0-1-0.4-1-1l-0.3-3.6c0-0.6,0.4-1.1,1-1.1h14h14
			c0.6,0,1.1,0.5,1,1.1L39.4,16.1z"/>
	</g>
</g>
</svg>
