<?xml version="1.0" encoding="utf-8"?>
<!-- Generator: Adobe Illustrator 24.0.1, SVG Export Plug-In . SVG Version: 6.00 Build 0)  -->
<svg version="1.1" id="Layer_1" xmlns="http://www.w3.org/2000/svg" xmlns:xlink="http://www.w3.org/1999/xlink" x="0px" y="0px"
	 viewBox="0 0 56 56" style="enable-background:new 0 0 56 56;" xml:space="preserve">
	<style type="text/css">
		svg {
		fill: #868e96;
		width: 56px;
		height: 56px;
		-webkit-transition: fill cubic-bezier(0.25, 0.46, 0.45, 0.94) 400ms;
 		-moz-transition: fill cubic-bezier(0.25, 0.46, 0.45, 0.94) 400ms;
 		transition: fill cubic-bezier(0.25, 0.46, 0.45, 0.94) 400ms;
		}
		svg:hover {
		fill: #e657aa;
		}
	</style>
<path class="icon" d="M34.9,10.8c-0.5,0-1,0.2-1.2,0.8c-0.4,1,0.6,1.9,1,2.4c0.2,0.3,0.6,0.7,0.8,1.1c0.1,0.3,0.1,0.5,0.2,0.8
	c0.2,0.7,0.6,1.4,1,2.1c0.2,0.3,0.3,0.6,0.5,0.9c0.1,0.2,0.3,0.2,0.4,0.5c-0.2,0.3-0.2,0.8-0.3,1.1c-0.5,1.7-0.3,3.8,0.4,5
	c0.2,0.4,0.8,1.2,1.6,0.9c0.7-0.3,0.5-1.1,0.7-1.9c0-0.2,0-0.3,0.1-0.4v0c0.2,0.4,0.4,0.8,0.6,1.2c0.5,0.7,1.3,1.5,2,2
	c0.4,0.3,0.6,0.7,1.1,0.9v0h0c-0.1-0.1-0.2-0.2-0.3-0.3c-0.3-0.3-0.6-0.6-0.8-0.9c-0.6-0.8-1.2-1.8-1.7-2.7c-0.2-0.5-0.5-1-0.7-1.4
	c-0.1-0.2-0.1-0.5-0.2-0.6c-0.2,0.3-0.5,0.6-0.7,1c-0.3,0.6-0.3,1.4-0.4,2.3c-0.1,0,0,0-0.1,0c-0.5-0.1-0.6-0.6-0.8-1
	c-0.4-1.1-0.5-2.8-0.1-4c0.1-0.3,0.6-1.3,0.4-1.6c-0.1-0.3-0.4-0.5-0.5-0.7c-0.2-0.3-0.4-0.6-0.5-1c-0.4-0.8-0.7-1.8-1.1-2.6
	c-0.2-0.4-0.5-0.8-0.8-1.2c-0.3-0.4-0.6-0.7-0.8-1.2c-0.1-0.2-0.2-0.4-0.1-0.6c0-0.1,0.1-0.2,0.2-0.2c0.2-0.2,0.7,0,1,0.1
	c0.5,0.2,1,0.4,1.5,0.8c0.2,0.1,0.4,0.4,0.7,0.5H38c0.5,0.1,1,0,1.5,0.2c0.8,0.2,1.5,0.6,2.2,1c2,1.2,3.6,3,4.7,5.1
	c0.2,0.3,0.3,0.7,0.4,1c0.3,0.7,0.7,1.5,1,2.2c0.3,0.7,0.6,1.4,1.1,2c0.2,0.3,1.1,0.5,1.5,0.7c0.3,0.1,0.8,0.2,1,0.4
	c0.5,0.3,1,0.7,1.5,1c0.2,0.2,1,0.5,1,0.9c-1.2,0-2.1,0.1-2.9,0.4c-0.2,0.1-0.6,0.1-0.6,0.4c0.1,0.1,0.1,0.3,0.2,0.5
	c0.2,0.3,0.5,0.7,0.8,0.9c0.3,0.2,0.6,0.5,1,0.7c0.6,0.4,1.2,0.6,1.8,0.9c0.3,0.2,0.7,0.5,1,0.7c0.2,0.1,0.3,0.3,0.5,0.4v0
	c-0.1-0.1-0.1-0.3-0.2-0.5L55,31.4c-0.4-0.6-1-1.1-1.6-1.5c-0.5-0.3-1.5-0.8-1.7-1.3l0,0c0.3,0,0.7-0.2,1-0.2c0.5-0.1,1-0.1,1.5-0.2
	c0.2-0.1,0.5-0.1,0.7-0.2v-0.1c-0.3-0.3-0.5-0.6-0.8-0.9c-0.8-0.7-1.6-1.3-2.5-1.8c-0.5-0.3-1.1-0.5-1.6-0.8
	c-0.2-0.1-0.5-0.1-0.6-0.3c-0.3-0.3-0.4-0.8-0.6-1.2c-0.4-0.8-0.8-1.7-1.2-2.6c-0.3-0.6-0.4-1.2-0.8-1.7c-1.6-2.6-3.2-4.1-5.8-5.6
	c-0.6-0.3-1.2-0.4-1.9-0.6c-0.4,0-0.8,0-1.1-0.1c-0.2-0.1-0.5-0.4-0.7-0.5C36.8,11.4,35.8,10.8,34.9,10.8z M38.6,14.5
	c-0.2,0-0.4,0-0.6,0.1v0h0c0.1,0.2,0.3,0.4,0.5,0.6c0.1,0.2,0.2,0.5,0.3,0.7l0,0c0.2-0.1,0.3-0.4,0.3-0.8c-0.1-0.1-0.1-0.2-0.2-0.3
	C38.9,14.7,38.7,14.6,38.6,14.5z M2.1,28.7c-0.3,0-0.7,0.1-1.1,0.2c-0.7,0.2-1,0.6-1,1.4v8.5h2.2v-8.3l3.1,7.1
	c0.4,0.9,0.9,1.2,1.9,1.2c1,0,1.5-0.3,1.9-1.2l3.1-6.9v8.1h2.2v-8.5c0-0.8-0.3-1.2-1-1.4c-1.6-0.5-2.7-0.1-3.1,1l-3.2,7.2l-3.1-7.2
	C3.8,29.1,3.1,28.6,2.1,28.7z M29.4,28.7c-0.9,0-3.6,0.1-3.6,2.2v1.4c0,1,0.9,1.8,2.7,2c0.2,0,0.4,0,0.6,0c0,0,2.2,0,2.2,0
	c1.3,0,1.1,1,1.1,1.1v1.1c0,0.2,0,1.1-1.1,1.1h-5.6v1.1h5.6c0.7,0,1.4-0.2,2-0.4c0.9-0.4,1.3-1,1.3-1.8v-1.6c0-1.7-2.1-1.8-3.4-1.8
	h-2.2c-0.9,0-1-0.5-1.1-1.1v-1.1c0.1-0.4,0.3-1,1.1-1.1h5.6v-1.1H29.4z M38.1,28.7c-1.7,0.2-2.2,1-2.2,2.2v5.6
	c0,1.1,0.6,1.7,1.9,2.1c0.4,0.1,0.8,0.2,1.2,0.2l2.5,0h1.5l1.2,1.1h2.5l-1.7-1.6c0.8-0.3,1.1-0.9,1.1-1.8v-5.6c0-1.2-0.8-2-2.4-2.2
	H38.1z M47,28.7v7.8c0,1.4,0.8,2.1,2.8,2.3c0.2,0,0.4,0,0.6,0H56v-1.1h-5.2c-1.2,0-1.5-0.5-1.5-1.2v-7.8H47z M39.4,29.8h2.9
	c0.8,0,1.3,0.6,1.4,1.1c0,0,0,5.2,0,5.6c0,0.4-0.2,0.6-0.2,0.6l-0.6-0.6h-2.5l1.2,1.1h-2.2c-0.8,0-1.2-0.6-1.3-1.1V31
	C38.1,30.4,38.5,29.8,39.4,29.8z M15.7,32c0,0,0,4.8,0,4.9c0,1,1.3,1.8,3.2,1.9h3.5v0.1c0,0.2,0.2,0.9-1.1,1c0,0-5.6,0-5.6,0V41h5.8
	c1,0,3.1-0.3,3.1-2c0,0,0-7,0-7h-2.2v5.6c0,0-2.8,0-3.3,0c-1.1,0-1.2-0.6-1.2-0.9V32H15.7z"/>
</svg>
