<?xml version="1.0" encoding="utf-8"?>
<!-- Generator: Adobe Illustrator 24.0.1, SVG Export Plug-In . SVG Version: 6.00 Build 0)  -->
<svg version="1.1" id="Livello_1" xmlns="http://www.w3.org/2000/svg" xmlns:xlink="http://www.w3.org/1999/xlink" x="0px" y="0px"
	 viewBox="0 0 47.4 54.6" style="enable-background:new 0 0 47.4 54.6;" xml:space="preserve">
<style type="text/css">
			svg {
		fill: #868e96;
		width: auto;
		height: 56px;
		-webkit-transition: fill cubic-bezier(0.25, 0.46, 0.45, 0.94) 400ms;
 		-moz-transition: fill cubic-bezier(0.25, 0.46, 0.45, 0.94) 400ms;
 		transition: fill cubic-bezier(0.25, 0.46, 0.45, 0.94) 400ms;
		}
		svg:hover {
		fill: #e657aa;
		}
</style>
<g>
	<path class="st0" d="M9.6,5.5L6.9,9.1c-3.4,5.1-3,11.8-0.4,17.2c0.1,0.1,0.1,0.2,0.2,0.4c0.1,0.1,0.1,0.2,0.1,0.2L6.9,27
		C7,27.1,7,27.2,7,27.2c0.1,0.2,0.2,0.3,0.2,0.5c0.1,0.1,0.1,0.2,0.1,0.2c0.1,0.2,0.2,0.3,0.3,0.5l0.1,0.2C7.8,28.8,8,29,8.1,29.2
		l0,0l0.1,0.1c0.1,0.2,0.2,0.3,0.4,0.5L8.7,30c0.1,0.2,0.2,0.3,0.3,0.5l0.1,0.2c0.2,0.2,0.3,0.4,0.5,0.6l0,0l0,0
		c0.2,0.2,0.3,0.3,0.5,0.5l0.2,0.2c0.1,0.1,0.3,0.3,0.4,0.4l0.2,0.2c0.2,0.2,0.3,0.3,0.5,0.5l0,0l0.1,0.1c0.2,0.2,0.3,0.3,0.5,0.4
		l0.2,0.2c0.1,0.1,0.3,0.2,0.4,0.3l0.2,0.2c0.2,0.1,0.3,0.2,0.5,0.3l0.2,0.1l0.2,0.1c0.2,0.1,0.3,0.2,0.5,0.3l0.2,0.1
		c0.2,0.2,0.5,0.3,0.7,0.5l0.2,0.1c0.2,0.1,0.3,0.2,0.5,0.3c0.1,0.1,0.2,0.1,0.3,0.2c0.1,0.1,0.2,0.1,0.4,0.2l0.1,0.1l0.2,0.1
		c0.2,0.1,0.4,0.2,0.6,0.3l0.1,0.1c0.2,0.1,0.5,0.2,0.7,0.3l0.2,0.1c0.2,0.1,0.5,0.2,0.6,0.2l0.1,0.1c0.2,0.1,0.5,0.2,0.8,0.2
		l0.2,0.1c0.2,0.1,0.5,0.2,0.8,0.2c16.7,3.1,21.5-10.4,21.5-10.4c-4.1,5.5-11.3,6.9-18.2,5.3C24,33.1,23.7,33,23.4,33l-0.2-0.1
		c-0.2-0.1-0.5-0.2-0.8-0.2l-0.1-0.1c-0.2-0.1-0.4-0.2-0.6-0.2l-0.2-0.1c-0.2-0.1-0.5-0.2-0.7-0.3l0,0c-0.2-0.1-0.4-0.2-0.6-0.3
		L20,31.6c-0.2-0.1-0.3-0.2-0.5-0.2c-0.1-0.1-0.2-0.1-0.3-0.2c-0.2-0.1-0.3-0.2-0.5-0.3l-0.2-0.1c-0.2-0.2-0.5-0.3-0.7-0.5l0-0.1
		c-0.2-0.1-0.3-0.2-0.5-0.3l-0.2-0.1c-0.2-0.1-0.3-0.2-0.5-0.3l-0.2-0.2c-0.1-0.1-0.3-0.2-0.4-0.3l-0.2-0.4
		c-0.2-0.2-0.3-0.3-0.5-0.5L15.2,28c-0.2-0.2-0.4-0.3-0.6-0.5l-0.2-0.2c-0.1-0.1-0.3-0.3-0.4-0.4h-0.2c-0.2-0.2-0.3-0.3-0.5-0.5l0,0
		c-0.2-0.2-0.3-0.4-0.5-0.6l-0.1-0.2c-0.1-0.2-0.2-0.3-0.3-0.5l-0.1-0.2c-0.1-0.2-0.3-0.4-0.4-0.6C7.9,19,6.6,11.6,9.6,5.5"/>
	<path class="st0" d="M19.7,1.8l-2,3c-2.5,3.7-2.4,8.7-0.4,12.6c0.3,0.6,0.7,1.3,1.1,1.9c0.3,0.5,0.8,1.2,1.3,1.6
		c0.2,0.2,0.3,0.4,0.6,0.6l0.2,0.2c0.2,0.2,0.3,0.3,0.6,0.5l0,0l0,0c0.2,0.2,0.5,0.4,0.6,0.6l0.2,0.1c0.2,0.2,0.5,0.3,0.7,0.5l0,0
		c0.1,0.1,0.2,0.1,0.3,0.2l0.2,0.1c0.2,0.1,0.3,0.2,0.5,0.3l0.1,0.1c0.2,0.1,0.3,0.2,0.5,0.3l0.2,0.1c0.1,0.1,0.2,0.1,0.3,0.2h0.1
		c0.2,0.1,0.5,0.2,0.6,0.3l0.2,0.1c0.2,0.1,0.3,0.2,0.5,0.2c0.1,0.1,0.2,0.1,0.2,0.1c0.2,0.1,0.3,0.1,0.5,0.2c0.1,0,0.2,0.1,0.2,0.1
		c0.2,0.1,0.5,0.2,0.8,0.2c12.9,2.2,15.9-8,15.9-8c-2.7,4-7.9,5.9-13.4,4.4c-0.2-0.1-0.5-0.1-0.8-0.2L29.2,22
		c-0.2-0.1-0.3-0.1-0.5-0.2c-0.1-0.1-0.2-0.1-0.2-0.1c-0.2-0.1-0.3-0.2-0.5-0.2l-0.2-0.1c-0.2-0.1-0.5-0.2-0.6-0.3
		c-0.3-0.1-0.4-0.1-0.5-0.2l-0.2-0.1c-0.1-0.1-0.3-0.2-0.4-0.2L26,20.5c-0.2-0.1-0.3-0.2-0.5-0.3L25.3,20c-0.1-0.1-0.2-0.2-0.3-0.2
		c-0.2-0.2-0.5-0.3-0.7-0.5l-0.2-0.1c-2.4-2-4.4-4.7-5.3-7.7C17.8,8.3,18,4.7,19.7,1.8"/>
	<path class="st0" d="M27.8,0l-1.1,1.6c-1.5,2.2-1.6,5-0.6,7.5c1,2.6,3.3,4.7,5.9,5.6c0.1,0.1,0.2,0.1,0.3,0.1l0.1,0.1
		c0.2,0.1,0.3,0.1,0.5,0.1c7.1,1.4,9.1-3.8,9.5-4.5c-1.7,2.5-4.5,3.1-8,2.2c-0.3-0.1-0.6-0.2-0.8-0.3c-0.3-0.1-0.7-0.3-1-0.4
		c-0.6-0.3-1.2-0.7-1.7-1.1C27.6,8.4,25.7,3.8,27.8,0"/>
	<path class="st0" d="M3.8,45.6c-0.1,0-0.2,0.1-0.2,0.2L3.3,47l-0.2,1.2c0,0.1-0.1,0.2-0.1,0.3l-0.2,1.2L2.5,51
		c0,0.1-0.1,0.2-0.1,0.3c0,0-0.3,1.1-0.9,1.1H1.4c-0.3,0-0.5,0-0.5,0c-0.1,0-0.2,0.1-0.2,0.2l-0.2,0.9l-0.2,0.9
		c0,0.1,0.1,0.2,0.1,0.2c0.3,0,1.1,0,1.6,0c1.5,0,2.3-0.9,2.8-3.3l0.6-2.8L6,45.9c0-0.1-0.1-0.2-0.1-0.2L3.8,45.6L3.8,45.6z
		 M29.1,45c1,0,1.3,0.5,1.2,1.2c0,0.1-0.1,0.2-0.2,0.2h-2.6c-0.1,0-0.1-0.1-0.1-0.1l0,0l0,0c0,0,0,0,0-0.1
		C27.6,45.4,28.1,45,29.1,45 M34.5,43.1c-0.1,0-0.2,0.1-0.2,0.2l-0.1,0.3L34.1,44v0.1l-0.7,3.4l-0.7,3.3c0,0.1,0,0.2,0,0.3
		s0.2,0.1,0.3,0.1h1.5c0.1,0,0.2,0,0.3-0.1c0.1,0,0.1-0.2,0.2-0.3l0.2-1.3l0.2-1.3l0,0l0.1-0.2l0.3-1.5l0.2-1.3
		c0-0.1,0.1-0.2,0.2-0.2h4.5c0.1,0,0.2-0.1,0.1-0.2v-0.2l-0.1-0.3l-0.1-0.2c-0.2-0.6-0.6-1-1.6-1h-1.5h-1.4H34.5z M18.2,43.1
		c-0.1,0-0.2,0.1-0.2,0.2l-0.4,1.9L17.1,47l0,0L17,47.2c-0.5,2-0.3,4,2,4.1c0.1,0,0.1,0,0.1,0h3.7c0.1,0,0.2-0.1,0.2-0.2l0.8-3.9
		l0.8-3.9c0-0.1-0.1-0.2-0.1-0.2h-1.7c-0.1,0-0.2,0.1-0.2,0.2L22,46.2l-0.6,2.9c0,0.1-0.1,0.2-0.2,0.2H20c-1.2,0-1-0.9-0.8-2v-0.1
		V47l0,0l0.1-0.3l0.1-0.3c0-0.1,0.1-0.2,0.1-0.3l0.3-1.4l0.3-1.4c0-0.1-0.1-0.2-0.1-0.2H18.2L18.2,43.1z M4.4,43.1
		c-0.1,0-0.2,0.1-0.2,0.2L4,44.1l-0.2,0.8c0,0.1,0.1,0.2,0.1,0.2h1.9C5.9,45.1,6,45,6,44.9l0.2-0.8l0.2-0.8c0-0.1-0.1-0.2-0.1-0.2
		C6.2,43.1,4.4,43.1,4.4,43.1 M11.9,43.1c1.9-0.1,2.2,1.4,1.7,3l-0.1,0.2l0,0l-0.3,1.4l-0.3,1.4c0,0.1-0.1,0.2-0.2,0.2h-2
		c-1.5,0-1.9-1.2-1.5-3c0.3-1.9,1.1-3,2.6-3.1C11.8,43.1,11.9,43.1,11.9,43.1 M29.5,43c-3.4,0-4.1,2.1-4.6,4.2
		c-0.5,2.2-0.4,4.2,3.1,4.2h0.1h0.1h0.2h0.1h0.1l0,0c0.1,0,0.3,0,0.4,0l0,0c0.9,0,1.8,0,2.2,0c0.1,0,0.2-0.1,0.2-0.2l0.1-0.7v-0.1
		l0.2-0.8c0-0.1-0.1-0.2-0.1-0.2h-3.1c-1.2,0-1.6-0.3-1.5-1.3h5l0,0c0.1,0,0.2-0.1,0.2-0.1v-0.1l0,0C32.9,44.9,32.7,43,29.5,43
		 M47.2,42h-0.5c-0.1,0-0.2,0-0.3,0h-1.5c-0.1,0-0.2,0.1-0.3,0.2L41.4,47c-0.1,0.1-0.1,0.1-0.1,0l-0.2-1c0-0.1-0.1-0.2-0.2-0.2h-2
		c-0.1,0-0.2,0.1-0.1,0.2l0.9,3.3c0,0.1,0,0.2,0,0.3l-0.4,1.6c0,0.1,0.1,0.2,0.1,0.2h2c0.1,0,0.2-0.1,0.2-0.2l0.4-1.6
		c0-0.1,0.1-0.2,0.2-0.3l5.2-7.1C47.3,42,47.3,42,47.2,42 M12.2,40.9c-3.4,0-4.9,2.5-5.4,5.2c-0.6,2.7,0.2,5.2,3.6,5.1h2.7h2.5
		c0.1,0,0.2-0.1,0.2-0.2l0.4-1.7c0-0.1-0.1-0.2-0.1-0.2h-0.4h-0.4c-0.1,0-0.1-0.1-0.1-0.1v-0.1c0,0,0.9-2.3,1.2-3.7
		C16.5,43.6,15.7,40.9,12.2,40.9"/>
</g>
</svg>
