<?xml version="1.0" encoding="utf-8"?>
<!-- Generator: Adobe Illustrator 24.0.1, SVG Export Plug-In . SVG Version: 6.00 Build 0)  -->
<svg version="1.1" id="Layer_1" xmlns="http://www.w3.org/2000/svg" xmlns:xlink="http://www.w3.org/1999/xlink" x="0px" y="0px"
	 viewBox="0 0 101 56" style="enable-background:new 0 0 101 56;" xml:space="preserve">
	<style type="text/css">
		svg {
		fill: #868e96;
		width: auto;
		height: 56px;
		-webkit-transition: fill cubic-bezier(0.25, 0.46, 0.45, 0.94) 400ms;
 		-moz-transition: fill cubic-bezier(0.25, 0.46, 0.45, 0.94) 400ms;
 		transition: fill cubic-bezier(0.25, 0.46, 0.45, 0.94) 400ms;
		}
		svg:hover {
		fill: #e657aa;
		}
	</style>
<g>
	<path class="st0" d="M25.9,40.2h3.3v6.9c0,0.4,0.1,1.3,1.9,1.3c0.9,0,7.2,0,7.2,0v-8.2h3.3c0,0,0,11.2,0,11.3
		c0,2.8-3.6,3.4-5.2,3.4H25.9v-2.1h10.5c2.1-0.2,1.9-1.2,1.9-1.6v-0.8h-7.1c-3.3,0-5.4-1.4-5.4-3C25.9,47.2,25.9,40.3,25.9,40.2
		L25.9,40.2z M0,50.4h3.3V37.9l5.2,10.9c0.6,1.3,1.4,1.8,3,1.8s2.4-0.5,3-1.8l5.2-10.9v12.5h3.3V37.9c0-1.2-0.5-1.8-1.6-2.1
		c-2.5-0.8-4.2-0.1-5,1.6l-5,10.8l-5-10.8c-0.7-1.6-2.5-2.3-5-1.6c-1.1,0.3-1.6,0.9-1.6,2.1L0,50.4L0,50.4z"/>
	<path class="st0" d="M64.7,46.7c0,0.1,0,0.2,0.1,0.4c0.2,0.8,1.1,1.3,2.3,1.3h3l-2.8-2.4h3.9l2.4,2.1c0.4-0.2,0.7-0.6,0.8-1
		c0-0.1,0-0.2,0-0.3v-7.2c0-0.1,0-0.2,0-0.3c-0.2-0.8-1.1-1.3-2.3-1.3h-5c-1.5,0-2.4,0.6-2.4,1.6L64.7,46.7L64.7,46.7z M61.1,46.9
		v-7.6c0-1.9,1.4-3,4.2-3.5c0.3-0.1,0.6-0.1,0.9-0.1h6.3c0.3,0,0.6,0,0.9,0.1c2.8,0.4,4.2,1.6,4.2,3.5v7.6c0,1.6-0.6,2.4-2,2.9
		l3.3,2.8h-3.8l-2.6-2.3l-2.7,0.1h-3.5c-0.6,0-1.3-0.1-2-0.3C62.1,49.7,61.1,48.6,61.1,46.9 M79.8,46.7c0,2.2,1.7,3.4,5.1,3.6
		c0.4,0,0.6,0.1,1,0.1h8.6v-2.1h-8.7c-2,0-2.7-0.5-2.7-1.6v-11h-3.3V46.7L79.8,46.7z M44.2,50.4h9.6c1.1,0,2.2-0.2,3-0.6
		c1.4-0.6,2.1-1.5,2.1-2.6v-2.3c0-0.9-0.8-1.8-2.3-2.3c-0.8-0.3-1.8-0.5-2.8-0.5h-4c-1.3,0-2-0.4-2.1-1.3c0-0.1,0-0.2,0-0.3V39
		c0-0.1,0-0.1,0-0.3c0.1-0.6,0.5-0.8,1.7-0.9c0.1,0,0.2,0,0.4,0h9.5v-2.1h-9.3c-1.3,0-2.1,0.1-2.7,0.3c-2,0.6-2.8,1.6-2.8,3.2V41
		c0,1.4,1.7,2.6,4.5,2.9c0.4,0,0.6,0.1,1,0.1h3.5c0.1,0,0.3,0,0.4,0c1.1,0.1,1.5,0.3,1.8,0.6c0.2,0.2,0.3,0.4,0.3,0.6V47
		c0,0.2-0.1,0.5-0.5,0.8c-0.3,0.2-0.8,0.4-1.4,0.4c-0.1,0-0.2,0-0.4,0h-9.3V50.4L44.2,50.4z"/>
	<path class="st0" d="M97.4,32.3c-2.1-0.1-3.6,0.1-5,0.6c-0.4,0.1-1,0.1-1.1,0.6c0.2,0.2,0.2,0.5,0.4,0.8c0.4,0.5,0.8,1.1,1.3,1.5
		s1.1,0.8,1.6,1.1c1,0.6,2.1,0.9,3,1.5c0.6,0.4,1.1,0.8,1.7,1.1c0.3,0.2,0.4,0.5,0.8,0.6v-0.1c-0.2-0.2-0.2-0.6-0.4-0.8l-0.8-0.7
		c-0.7-0.9-1.7-1.8-2.7-2.4c-0.8-0.6-2.5-1.3-2.9-2.2L93.4,34c0.6-0.1,1.2-0.3,1.8-0.4c0.8-0.2,1.6-0.1,2.5-0.4l1.2-0.4v-0.2
		c-0.4-0.4-0.8-1.1-1.3-1.4c-1.3-1.1-2.7-2.1-4.2-3c-0.8-0.5-1.8-0.8-2.7-1.2c-0.3-0.1-0.8-0.2-1-0.4c-0.4-0.6-0.7-1.3-1.1-1.9
		c-0.7-1.3-1.4-2.8-2.1-4.2c-0.4-1-0.7-1.9-1.3-2.8c-2.6-4.2-5.5-6.7-9.8-9.1c-0.9-0.5-2.1-0.7-3.3-1l-1.9-0.1
		c-0.4-0.1-0.8-0.6-1.1-0.8c-1.5-0.8-5.2-2.8-6.3-0.3c-0.7,1.6,1,3.1,1.6,4c0.4,0.6,1,1.2,1.3,1.8c0.2,0.4,0.2,0.8,0.4,1.3
		c0.4,1.1,0.8,2.3,1.3,3.3c0.3,0.5,0.6,1.1,0.9,1.5c0.2,0.3,0.6,0.4,0.6,0.8c-0.4,0.5-0.4,1.2-0.6,1.8C67.6,23.6,68,27,69.3,29
		c0.4,0.6,1.3,2,2.7,1.4c1.1-0.4,0.9-1.8,1.2-3c0.1-0.3,0-0.5,0.1-0.6v0.1l1.1,2c0.8,1.2,2.1,2.4,3.3,3.3c0.6,0.4,1.1,1.2,1.8,1.4
		v-0.1h-0.1c-0.1-0.2-0.4-0.3-0.6-0.5c-0.4-0.4-1-0.9-1.3-1.4c-1.1-1.3-2-2.9-2.8-4.5c-0.4-0.8-0.8-1.6-1.1-2.3
		c-0.1-0.3-0.1-0.7-0.4-0.9c-0.4,0.6-0.9,1-1.2,1.7c-0.5,1.1-0.5,2.3-0.7,3.7c-0.1,0-0.1,0-0.1,0.1c-0.8-0.2-1.1-1-1.4-1.7
		C69,25.8,68.8,23,69.6,21c0.1-0.5,1-2.1,0.6-2.6c-0.1-0.5-0.6-0.8-0.9-1.1c-0.4-0.4-0.7-1.1-0.9-1.6c-0.6-1.3-0.9-2.8-1.6-4.2
		c-0.3-0.6-0.8-1.3-1.3-1.9c-0.5-0.6-1-1.1-1.4-1.9c-0.1-0.3-0.3-0.7-0.1-1c0.1-0.1,0.1-0.3,0.4-0.4c0.4-0.3,1.3,0.1,1.6,0.2
		c0.9,0.4,1.7,0.7,2.5,1.2c0.4,0.2,0.8,0.7,1.2,0.8h0.5c0.8,0.2,1.7,0.1,2.5,0.3c1.3,0.4,2.5,1,3.7,1.7c3.3,2.1,6.1,4.9,7.9,8.4
		c0.3,0.6,0.4,1.1,0.7,1.7c0.6,1.2,1.2,2.4,1.8,3.5c0.6,1.1,1.1,2.3,1.8,3.3c0.4,0.5,1.9,0.8,2.6,1.1c0.5,0.2,1.3,0.4,1.8,0.6
		c0.8,0.5,1.7,1.1,2.5,1.7C96,31.1,97.3,31.8,97.4,32.3L97.4,32.3z"/>
	<path class="st0" d="M71.4,11.1c-0.4,0-0.7,0.1-1.1,0.1v0.1h0.1c0.2,0.4,0.6,0.6,0.8,1l0.6,1.1l0.1-0.1c0.4-0.2,0.5-0.6,0.5-1.2
		c-0.1-0.1-0.1-0.4-0.3-0.5C72,11.5,71.6,11.3,71.4,11.1L71.4,11.1z"/>
	<path class="st0" d="M98,48.1v-0.8h0.6c0.3,0,0.6,0.1,0.6,0.4c0,0.4-0.3,0.4-0.6,0.4H98L98,48.1z M99.2,49.6h0.6l-0.8-1.2
		c0.4-0.1,0.8-0.2,0.8-0.7c0-0.6-0.4-0.8-1.1-0.8h-1.1v2.7h0.5v-1.1h0.4L99.2,49.6L99.2,49.6z M100.4,48.3c0,1.1-0.8,1.8-1.9,1.8
		c-1.1,0-1.9-0.8-1.9-1.8s0.8-1.8,1.9-1.8C99.5,46.4,100.4,47.2,100.4,48.3 M96,48.3c0,1.4,1.1,2.3,2.5,2.3c1.3,0,2.5-0.9,2.5-2.3
		s-1.1-2.3-2.5-2.3C97.2,45.9,96,46.9,96,48.3"/>
</g>
</svg>
