<?xml version="1.0" encoding="utf-8"?>
<!-- Generator: Adobe Illustrator 24.0.1, SVG Export Plug-In . SVG Version: 6.00 Build 0)  -->
<svg version="1.1" id="Layer_1" xmlns="http://www.w3.org/2000/svg" xmlns:xlink="http://www.w3.org/1999/xlink" x="0px" y="0px"
	 viewBox="0 0 56 56" style="enable-background:new 0 0 56 56;" xml:space="preserve">
	 <style type="text/css">
		svg {
		fill: #868e96;
		width: 56px;
		height: 56px;
		}
		svg:hover {
		fill: #cd928d;
		}
	</style>
<g>
	<g>
		<g>
			<path d="M10.9,39.8c-0.5-0.2-1,0-1.4,0.5l-2.6,3.5l-2.6-3.5c-0.3-0.5-1-0.6-1.4-0.5C2.4,40,2.2,40.5,2.2,41v9.4
				c0,0.7,0.5,1.2,1.2,1.2s1.2-0.5,1.2-1.2v-5.9l1.4,1.9c0.5,0.7,1.4,0.7,1.9,0l1.4-1.9v5.9c0,0.7,0.5,1.2,1.2,1.2
				c0.7,0,1.2-0.5,1.2-1.2V41C11.6,40.5,11.3,40.1,10.9,39.8z"/>
		</g>
	</g>
	<g>
		<g>
			<path d="M28.2,42c1.4,0,2.1,0.8,2.3,1.2c0.6,0.9,1,1.1,1.6,0.8c0.8-0.3,0.8-0.7,0.8-1.1c-0.2-1.9-2.1-3.3-4.7-3.3
				c-2.6,0-4.7,1.6-4.7,3.5c0,1.9,1.4,3,4.2,3.5l0.5,0.1c1.9,0.2,2.3,0.7,2.3,1.3c0,0.7-1.2,1.3-2.6,1.3c-1.4,0-2.1-0.8-2.3-1.2
				c-0.4-0.7-0.7-1.2-1.2-1.2c-0.7,0-1.3,0.6-1.2,1.2c0.4,1.8,2.1,3.3,4.7,3.3c2.6,0,4.7-1.6,4.7-3.5c0-1.9-1.4-3-4.2-3.5l-0.3,0
				c-2.1-0.2-2.3-0.9-2.3-1.2C25.9,42.7,26.8,42,28.2,42z"/>
		</g>
	</g>
	<g>
		<g>
			<path d="M52.7,49.2h-3.5V41c0-0.7-0.5-1.2-1.2-1.2c-0.7,0-1.2,0.5-1.2,1.2v9.4c0,0.7,0.5,1.2,1.2,1.2h4.7c0.7,0,1.2-0.5,1.2-1.2
				S53.4,49.2,52.7,49.2z"/>
		</g>
	</g>
	<g>
		<g>
			<path d="M44.2,49.5c0.2-0.5,0.2-0.9,0.2-1.4l0-4.7h0c0-1.9-1.6-3.5-3.5-3.5h-2.3c-1.9,0-3.5,1.6-3.5,3.5v4.7
				c0,1.9,1.6,3.5,3.5,3.5h2.3c0.5,0,0.9-0.2,1.4-0.5c0.2,0.2,0.5,0.5,1,0.5c0.2,0,0.6-0.2,0.9-0.5C44.7,50.6,44.7,49.9,44.2,49.5
				L44.2,49.5z M42.1,47.6L42.1,47.6l-0.2-0.2c-0.5-0.5-1.2-0.5-1.6,0c-0.5,0.5-0.5,1.2,0,1.6l0.2,0.2h-1.9c-0.7,0-1.2-0.5-1.2-1.2
				v-4.7c0-0.7,0.5-1.2,1.2-1.2h2.3c0.7,0,1.2,0.5,1.2,1.2L42.1,47.6L42.1,47.6z"/>
		</g>
	</g>
	<g>
		<g>
			<path d="M20.3,44.5c-0.4-0.3-1.3-0.1-1.6,0.5l-1.4,2.6L15.8,45c-0.2-0.5-1-0.8-1.6-0.5c-0.5,0.2-0.8,1-0.5,1.6l2.1,4.2l-2.1,4.2
				c-0.3,0.5,0.1,1.2,0.8,1.4c0.5,0.2,1.1,0.3,1.5-0.4l4.7-9.4C21,45.7,20.8,44.9,20.3,44.5L20.3,44.5z"/>
		</g>
	</g>
	<g>
		<g>
			<path d="M44.5,13.9c-0.4-0.3-1.1-0.3-1.4-0.1c-3.7,2.2-9,3.4-15.1,3.4S16.3,16,12.9,13.8c-0.7-0.5-1.3-0.2-1.6,0
				c-0.4,0.3-0.7,0.6-0.5,1.5c1.2,4.7,9.4,6.8,17.4,6.8s16.4-2.1,16.9-6.6C45.2,14.8,44.8,14.1,44.5,13.9z"/>
		</g>
	</g>
	<g>
		<g>
			<path d="M44.5,21.2c-0.4-0.3-1.1-0.3-1.4-0.1c-3.7,2.2-9,3.4-15.1,3.4s-11.7-1.2-15.1-3.4c-0.7-0.5-1.3-0.2-1.6,0
				c-0.4,0.3-0.7,0.6-0.5,1.5c1.2,4.7,9.4,6.8,17.4,6.8s16.4-2.1,16.9-6.6C45.2,22.1,44.8,21.4,44.5,21.2z"/>
		</g>
	</g>
	<g>
		<g>
			<path d="M44.5,28.6c-0.4-0.3-1.1-0.3-1.4-0.1c-3.7,2.2-9,3.4-15.1,3.4s-11.7-1.2-15.1-3.4c-0.7-0.5-1.3-0.2-1.6,0
				c-0.4,0.3-0.7,0.6-0.5,1.5c1.2,4.7,9.4,6.8,17.4,6.8s16.4-2.1,16.9-6.6C45.2,29.5,44.8,28.8,44.5,28.6L44.5,28.6z"/>
		</g>
	</g>
	<g>
		<g>
			<path d="M28,0.1c-8.3,0-17.1,2.7-17.1,7.3c0,4.6,8.8,7.3,17.1,7.3S45,12.1,45,7.5C45,2.8,36.3,0.1,28,0.1z"/>
		</g>
	</g>
</g>
</svg>
