<?xml version="1.0" encoding="utf-8"?>
<!-- Generator: Adobe Illustrator 24.0.1, SVG Export Plug-In . SVG Version: 6.00 Build 0)  -->
<svg version="1.1" id="Livello_1" xmlns="http://www.w3.org/2000/svg" xmlns:xlink="http://www.w3.org/1999/xlink" x="0px" y="0px"
	 viewBox="0 0 56 54.6" style="enable-background:new 0 0 56 54.6;" xml:space="preserve">
	<style type="text/css">
		svg {
		fill: #868e96;
		width: 56px;
		height: 56px;
		-webkit-transition: fill cubic-bezier(0.25, 0.46, 0.45, 0.94) 400ms;
 		-moz-transition: fill cubic-bezier(0.25, 0.46, 0.45, 0.94) 400ms;
 		transition: fill cubic-bezier(0.25, 0.46, 0.45, 0.94) 400ms;
		}
		svg:hover {
		fill: #e657aa;
		}
	</style>
<path class="st0" d="M47.5,35.7c-0.7,0-1.4,0.1-2.1,0.3l-0.1-0.3h0l0,0c1-0.1,1.9-0.4,2.8-0.9c1.1-0.7,1.7-1.8,1.7-3.1
	c0-0.2,0-0.3,0-0.5c-0.5-3.8-3.4-6.8-7.2-7.5L40,23.3c-2-0.3-3.8-1-5.5-1.9c0,0,0-0.1,0-0.1c0.1-0.3,0-0.5-0.2-0.8l-3.4-4.1
	c-0.3-0.3-0.7-0.4-1-0.2l-1,0.5c-0.2-0.2-0.4-0.5-0.5-0.7c0.1-0.1,0.3-0.1,0.4-0.3c0.2-0.2,0.2-0.5,0.2-0.7l-1.2-5.1
	c-0.1-0.4-0.4-0.7-0.8-0.7h-1.2V2.8c0-0.5-0.4-0.9-0.9-0.9h-2c-2,0-3.6,1.5-3.8,3.5H7.2c-0.4,0-0.8,0.3-0.9,0.8L4.4,21.1
	C3.8,25.5,4.7,29.9,7,33.7c0,0,0.5,1,1.5,1c0,0,0.9,0,2.4,0.1L10.4,36c-0.6-0.1-1.2-0.2-1.9-0.2c-4.7,0-8.5,3.8-8.5,8.5
	c0,4.7,3.8,8.5,8.5,8.5c4.7,0,8.5-3.8,8.5-8.5c0-0.4-0.1-0.7-0.1-1c1-0.1,1.9-0.1,2.8-0.1c-0.1,0.4-0.1,0.8-0.1,1.1
	c0,4.7,3.8,8.5,8.5,8.5c4.7,0,8.5-3.8,8.5-8.5c0-0.5-0.1-0.9-0.1-1.4c0.9,0,1.9,0,2.9,0.1c-0.1,0.4-0.1,0.9-0.1,1.3
	c0,4.7,3.8,8.5,8.5,8.5c4.7,0,8.5-3.8,8.5-8.5C56,39.5,52.2,35.7,47.5,35.7 M30,18l2.2,2.7L18,27.1L16.7,24L30,18z M20.6,5.8
	c0-1.1,0.9-2.1,2.1-2.1h1.1v5.4h-3.2V5.8z M26.1,10.9l0.8,3.3h-9v-3.3H26.1z M6.1,21.3L7.9,7.2h10.9v1.9H17c-0.4,0-0.7,0.2-0.8,0.5
	H10c-0.5,0-0.9,0.4-0.9,0.9v4c0,0.5,0.4,0.9,0.9,0.9h6.2c0.1,0.3,0.4,0.5,0.8,0.5h9.3c0.3,0.5,0.6,1,1,1.4l-12,5.4
	c-0.4,0.2-0.6,0.7-0.4,1.1l2,4.7c0.1,0.2,0.3,0.4,0.5,0.5c0.1,0,0.2,0.1,0.3,0.1c0.1,0,0.2,0,0.4-0.1l14.9-6.7
	c0.3,0.2,0.6,0.3,0.8,0.5l-1.8,1.7c-0.4,0.3-0.4,0.9,0,1.2c0.2,0.2,0.4,0.3,0.6,0.3c0.2,0,0.4-0.1,0.6-0.2l2.3-2.2
	c0.5,0.2,1,0.4,1.4,0.5l-1.2,1.5c-0.3,0.4-0.2,0.9,0.1,1.2c0.2,0.1,0.4,0.2,0.6,0.2c0.3,0,0.5-0.1,0.7-0.3l1.7-2.1
	c0.4,0.1,0.8,0.2,1.1,0.2l2.5,0.4c2.8,0.5,5,2.5,5.6,5.2H21c-7.1,0-13.5-4.2-14.9-5.2C5.9,24.1,5.9,22.7,6.1,21.3 M16.1,13.7h-5.2
	v-2.3h5.2V13.7z M6.5,27.8c2.7,1.7,8.3,4.6,14.5,4.6h26.9c-0.1,0.4-0.4,0.7-0.8,0.9c-0.7,0.4-1.5,0.7-2.3,0.6L12.1,33l0,0h0
	l-3.5-0.1C7.6,31.3,6.9,29.6,6.5,27.8 M15.3,44.2c0,3.7-3,6.8-6.8,6.8c-3.7,0-6.8-3-6.8-6.8s3-6.8,6.8-6.8c0.4,0,0.9,0,1.3,0.1
	l-1.9,5.2c-0.4,0.2-0.7,0.7-0.7,1.2c0,0.8,0.6,1.4,1.4,1.4c0.3,0,0.5-0.1,0.7-0.2c1.5,0,1.6,0,1.8-0.2c1.2-0.7,2.6-1.2,4.1-1.6
	C15.2,43.7,15.3,43.9,15.3,44.2 M9.8,43.5c-0.1-0.2-0.2-0.3-0.3-0.5l1.8-4.9c1.6,0.8,2.8,2.1,3.4,3.7c-1.6,0.3-3.2,0.9-4.4,1.6
	C10.2,43.4,10,43.5,9.8,43.5 M34.8,44.2c0,3.7-3,6.8-6.8,6.8c-3.7,0-6.8-3-6.8-6.8c0-0.3,0.1-0.7,0.1-1c1.7,0.2,3,0.8,3.6,1.5
	c0.2,0.2,0.4,0.3,0.7,0.3c0.4,0,0.9,0,1.4,0c0.2,0.2,0.6,0.4,0.9,0.4c0.4,0,0.7-0.2,1-0.4c0.6,0,1,0,1.2,0c0,0,0,0,0,0
	c0.3,0,0.6-0.1,0.8-0.3c0.6-0.8,2-1.4,3.7-1.6C34.7,43.4,34.8,43.8,34.8,44.2 M29.2,43.3c-0.2-0.4-0.7-0.7-1.2-0.7
	c-0.5,0-1,0.3-1.2,0.7c-0.3,0-0.5,0-0.8,0c-0.9-0.9-2.4-1.4-4.2-1.7c1-2.5,3.4-4.2,6.3-4.2c2.7,0,5.1,1.6,6.2,4
	c-1.8,0.3-3.4,1-4.3,1.9C29.7,43.3,29.4,43.3,29.2,43.3 M35.9,41.2c-1.2-3.2-4.3-5.4-7.9-5.4c-3.7,0-6.8,2.4-8,5.7
	c-1.2-0.1-2.4,0-3.6,0.1c-0.7-2.2-2.4-4.1-4.5-5l0.6-1.7c3.4,0.1,8.6,0.2,13.7,0.4l17.3,0.6l0.4,0.9c-2,0.9-3.5,2.6-4.2,4.7
	C38.4,41.1,37.1,41.1,35.9,41.2 M45.7,43.2c-1.3-0.8-2.8-1.3-4.4-1.6c0.6-1.5,1.8-2.7,3.2-3.4l2,5C46.2,43.2,45.9,43.2,45.7,43.2
	 M47.5,51c-3.7,0-6.8-3-6.8-6.8c0-0.4,0.1-0.7,0.1-1c1.4,0.3,2.8,0.7,3.9,1.4c0.1,0.3,0.5,0.3,1.9,0.3c0.3,0.3,0.6,0.5,1.1,0.5
	c0.8,0,1.4-0.6,1.4-1.4c0-0.6-0.4-1.1-1-1.3l-2-5.1c0.5-0.1,1-0.2,1.5-0.2c3.7,0,6.8,3,6.8,6.8S51.3,51,47.5,51"/>
</svg>
