<?xml version="1.0" encoding="utf-8"?>
<!-- Generator: Adobe Illustrator 24.0.1, SVG Export Plug-In . SVG Version: 6.00 Build 0)  -->
<svg version="1.1" id="Livello_1" xmlns="http://www.w3.org/2000/svg" xmlns:xlink="http://www.w3.org/1999/xlink" x="0px" y="0px"
	 viewBox="0 0 65.9 54.6" style="enable-background:new 0 0 65.9 54.6;" xml:space="preserve">
<style type="text/css">
		svg {
		fill: #868e96;
		width: auto;
		height: 56px;
		-webkit-transition: fill cubic-bezier(0.25, 0.46, 0.45, 0.94) 400ms;
 		-moz-transition: fill cubic-bezier(0.25, 0.46, 0.45, 0.94) 400ms;
 		transition: fill cubic-bezier(0.25, 0.46, 0.45, 0.94) 400ms;
		}
		svg:hover {
		fill: #e657aa;
		}
</style>
<path class="st0" d="M57.3,32.5c-1.1,0.4-1,0.4-1.6-0.6c-0.7-1.3-1.1-2.6-1.1-4.1c0-1.3,0.3-2.4,0.8-3.6c0.3-0.9-0.1-1.2-0.9-1.3
	c-0.6-0.1-1.2-0.1-1.8,0c-1.5,0.2-1.7,0.3-2.1,1.7c-0.2,0.9-0.4,1.7-0.8,2.6c-1,2-2.1,4-3.2,5.9c-0.2,0.3-0.4,0.7-0.7,1
	c-0.8-1.2-1.1-2.6-1.2-4c-0.1-1.4,0.4-2.7,0.8-4c0.2-0.4,0-0.7-0.3-0.9C45,25.1,44.8,25,44.7,25c-1-0.1-1.9-0.1-2.9,0.2
	c-0.4,0.1-0.7,0.4-0.8,0.8c-0.2,0.9-0.5,1.8-0.9,2.7c-1.1,2.4-2.1,4.8-3.2,7.2c-0.9,2.1-1.9,4.2-3,6.2c-0.1,0.1-0.1,0.4-0.3,0.3
	c-0.2,0-0.1-0.3-0.1-0.5c-0.1-1.2,0.3-2.3,0.5-3.5c0.4-1.8,0.9-3.6,1.4-5.4c0.1-0.5-0.1-0.9-0.5-1.1c-0.6-0.4-1.2-0.4-1.9,0.1
	c0.1-0.7,0.1-1.4,0.1-2c-0.1-1.4-0.7-2.4-1.9-2.6c-0.8-0.2-1.6,0.1-2.4,0.4c-1.8,0.8-3.2,2.1-4.4,3.6c-0.1,0.2-0.3,0.3-0.5,0.4
	c-2.2,1.2-4.4,2.4-6.7,3.6c-0.2,0.1-0.4,0.1-0.6-0.1c-1.1-1.2-2.4-2.2-3.7-3.2c-1.8-1.4-3.7-2.7-5.2-4.4c-0.9-1-1.7-2.1-2-3.4
	c-0.6-2.1-0.2-4.1,0.9-6c1.2-2.2,3-4,5-5.5c3.2-2.4,6.6-4.4,10.3-6c4.1-1.8,8.3-2.9,12.8-2.8c1.8,0.1,3.5,0.4,5.1,1.3
	C41,6.3,41.8,7.2,42,8.5c0.2,1.5-0.1,3-0.8,4.3c-1.5,3-4,5.1-6.8,6.8c-2.4,1.4-5,2.3-7.7,2.7c-1.5,0.3-3,0.4-4.5,0.2
	c-1.7-0.3-3.3-0.8-4.5-2.2c-0.1-0.2-0.3-0.3-0.5-0.2c-0.2,0.1-0.2,0.3-0.2,0.5c0,0.1,0.1,0.3,0.1,0.4c0.3,0.9,0.9,1.5,1.6,2.1
	c1.8,1.5,4,1.9,6.2,2c2.2,0,4.4-0.2,6.5-0.8c4.9-1.2,8.9-3.5,11.9-7.6c1.8-2.4,2.9-5.1,2.8-8.2c-0.1-2-0.7-3.7-2.1-5.1
	c-1.7-1.7-3.8-2.5-6-3c-2.5-0.6-5-0.6-7.6-0.3c-2.2,0.3-4.4,0.7-6.5,1.5c-3.2,1.1-6.4,2.5-9.4,4.2c-3.1,1.7-6,3.7-8.5,6.1
	c-2.2,2.2-4.2,4.6-5.3,7.5c-0.5,1.3-0.8,2.6-0.5,4c0.4,1.8,1.3,3.3,2.4,4.7c1.7,2.1,3.9,3.7,6.1,5.3c1.8,1.3,3.6,2.4,5.3,3.8
	c0.5,0.4,0.5,0.4-0.1,0.7c-0.7,0.3-1.3,0.7-2,1c-2.6,1.5-5.1,3.1-7.2,5.3c-0.6,0.7-1.1,1.4-1.5,2.1l0,0c-1.1,2-3.8,9.3,5.4,8.3
	c3.8-0.3,6.8-2.3,9-5.6c1.1-1.6,1.5-3.4,1.7-5.3c0.2-1.7,0-3.3-0.5-4.9c-0.1-0.3-0.4-0.6-0.3-0.8c0.1-0.2,0.5-0.3,0.7-0.5
	c1-0.6,2.1-1.2,3.2-1.8c0,0.2,0,0.4-0.1,0.5c-0.6,2.3-1.1,4.6-0.6,6.9c0.3,1.5,0.8,2.9,1.7,4.1c1,1.3,3.1,1.1,4,0
	c0.8-1.1,1.4-2.3,1.9-3.5c0.3-0.7,0.6-1.3,0.9-2c-0.1,0.8-0.1,1.6,0,2.4c0,0.8,0.2,1.5,0.6,2.2c0.5,0.8,1.4,1.1,2.3,0.6
	c0.9-0.5,1.5-1.2,2-2.1c2-3.6,3.9-7.2,5.5-11c0.3-0.8,0.7-1.6,1.1-2.5c0.1,0.3,0.1,0.5,0.1,0.7c0.3,1.8,1,3.5,1.9,5.2
	c0.2,0.3,0.2,0.6-0.1,0.9c-0.8,1.1-1.7,2.2-2.6,3.3c-0.7,0.9-1.6,1.8-2.2,2.8c-0.6,0.9-0.2,1.8,0.7,2c0.3,0.1,0.6,0.1,0.9,0.1
	c1.7,0,3.2-0.5,4.6-1.3c1.9-1.1,3-2.7,3-5c0-1-0.3-2-0.7-3c-0.1-0.2-0.1-0.4,0-0.6c1.3-1.9,2.5-3.9,3.6-5.9c0.2-0.4,0.3-0.8,0.6-1.1
	c0,0.1,0.1,0.2,0.1,0.3c0.3,1.7,0.8,3.4,1.7,4.9c0.2,0.4,0.1,0.6-0.2,0.9c-1.1,1-2.1,2.1-2.8,3.4c-0.6,1-1,2.1-1,3.2
	c0,1.3,1,2.1,2.3,1.8c1.3-0.3,2.5-0.9,3.7-1.7c2.4-1.8,3.1-3.6,2.4-6.2c-0.3-1-0.3-1,0.7-1.3c2.2-0.7,4.5-0.7,6.8-0.3
	c0.3,0,0.5,0.1,0.8,0.1c0.1-0.8,0.2-1.6,0.3-2.5C63,31,60.1,31.4,57.3,32.5z M10.1,50.7c-0.6,0.2-1.3,0.3-2,0.3
	c-0.9-0.1-1.4-0.7-1.5-1.6c-0.1-1,0.2-2,0.7-2.9c0.8-1.7,2.2-2.8,3.7-3.9c1.4-1.1,2.9-2,4.4-2.9c0.5-0.3,0.5-0.3,0.6,0.3
	c0.1,0.7,0.3,1.4,0.2,2C16.3,45.7,13.5,49.5,10.1,50.7z M30.9,31.5c-0.2,1.6-0.8,3.1-1.3,4.6c-0.8,2.1-1.5,4.1-2.5,6.1
	c-0.2,0.5-0.5,0.9-0.8,1.3c-0.3,0.4-0.6,0.3-0.9-0.1C25,42.5,25,41.6,25,40.9c0-3.4,1.2-6.2,3-8.7c0.5-0.7,1.2-1.3,2.1-1.5
	C30.7,30.6,31,30.8,30.9,31.5z M44.1,41.5c-0.6,1.1-1.6,1.9-2.7,2.5c-0.1,0.1-0.3,0.2-0.4,0c-0.1-0.1,0.1-0.2,0.1-0.3
	c1.1-1.2,2.3-2.5,3.3-3.8c0,0,0.1,0,0.1-0.1C44.5,40.5,44.4,41,44.1,41.5z M51.9,41.5c-0.2,0.1-0.4,0.2-0.5,0.1
	c-0.2-0.1-0.1-0.4-0.1-0.6c0.3-0.9,0.6-1.7,1.1-2.5c0.4-0.6,0.9-1.2,1.4-1.7c0.2-0.2,0.3-0.2,0.4,0.1c0.1,0.3,0.1,0.6,0.1,0.9
	C54.3,39.6,53.4,40.8,51.9,41.5z"/>
</svg>
