<?xml version="1.0" encoding="utf-8"?>
<!-- Generator: Adobe Illustrator 24.0.1, SVG Export Plug-In . SVG Version: 6.00 Build 0)  -->
<svg version="1.1" id="Livello_1" xmlns="http://www.w3.org/2000/svg" xmlns:xlink="http://www.w3.org/1999/xlink" x="0px" y="0px"
	 viewBox="0 0 56 54.6" style="enable-background:new 0 0 56 54.6;" xml:space="preserve">
	<style type="text/css">
		svg {
		fill: #868e96;
		width: 56px;
		height: 56px;
		-webkit-transition: fill cubic-bezier(0.25, 0.46, 0.45, 0.94) 400ms;
 		-moz-transition: fill cubic-bezier(0.25, 0.46, 0.45, 0.94) 400ms;
 		transition: fill cubic-bezier(0.25, 0.46, 0.45, 0.94) 400ms;
		}
		svg:hover {
		fill: #e657aa;
		}
	</style>
<g>
	<path class="st0" d="M46.1,0H9.8c-5,0-9.1,4.1-9.1,9.1v36.4c0,5,4.1,9.1,9.1,9.1h36.4c5,0,9.1-4.1,9.1-9.1V9.1
		C55.3,4.1,51.2,0,46.1,0z M41.2,38.3c-0.5,1.1-1.2,2-2.1,2.8c-1,0.8-2.2,1.4-3.7,1.8c-1.5,0.4-3.3,0.7-5.3,0.7H15.5V11.9H31
		c2.9,0,5.1,0.7,6.9,2c1.8,1.3,2.6,3.3,2.6,5.9c0,1.6-0.4,3-1.2,4.1c-0.8,1.2-1.9,2-3.3,2.7v0.1c2,0.4,3.5,1.4,4.4,2.8
		c1,1.4,1.5,3.3,1.5,5.4C41.9,36,41.7,37.2,41.2,38.3z"/>
	<path class="st0" d="M33.5,24c0.9-0.8,1.4-1.8,1.4-3.3c0-1.6-0.4-2.7-1.2-3.4c-0.8-0.7-2-1-3.5-1h-9.1v8.8h9.1
		C31.5,25.2,32.6,24.8,33.5,24z"/>
	<path class="st0" d="M34.9,30.5c-1-0.9-2.3-1.3-4-1.3h-9.8v10h9.8c1.7,0,3-0.4,4-1.3c1-0.9,1.4-2.1,1.4-3.8
		C36.3,32.6,35.8,31.3,34.9,30.5z"/>
</g>
</svg>
