<?xml version="1.0" encoding="utf-8"?>
<!-- Generator: Adobe Illustrator 24.0.1, SVG Export Plug-In . SVG Version: 6.00 Build 0)  -->
<svg version="1.1" id="Livello_1" xmlns="http://www.w3.org/2000/svg" xmlns:xlink="http://www.w3.org/1999/xlink" x="0px" y="0px"
	 viewBox="0 0 62.6 54.6" style="enable-background:new 0 0 62.6 54.6;" xml:space="preserve">
<style type="text/css">
	svg {
		fill: #868e96;
		width: auto;
		height: 56px;
		-webkit-transition: fill cubic-bezier(0.25, 0.46, 0.45, 0.94) 400ms;
 		-moz-transition: fill cubic-bezier(0.25, 0.46, 0.45, 0.94) 400ms;
 		transition: fill cubic-bezier(0.25, 0.46, 0.45, 0.94) 400ms;
		}
		svg:hover {
		fill: #e657aa;
		}
</style>
<g>
	<path class="st0" d="M12.6,29.8c-0.7,0-1.1-0.6-1.1-1.1v-0.9c0-0.7,0.6-1.1,1.1-1.1c0.7,0,1.1,0.5,1.1,1.1v0.9
		C13.7,29.4,13.1,29.8,12.6,29.8z"/>
	<path class="st0" d="M12.6,26.9c-0.5,0-0.9,0.4-0.9,0.9v0.9c0,0.5,0.4,0.9,0.9,0.9c0.5,0,0.9-0.4,0.9-0.9v-0.9
		C13.5,27.2,13.1,26.9,12.6,26.9z"/>
	<path class="st0" d="M23.3,29.8c-0.6,0-1.1-0.6-1.1-1.1v-0.9c0-0.7,0.6-1.1,1.1-1.1c0.7,0,1.1,0.6,1.1,1.1v0.9
		C24.4,29.4,23.8,29.8,23.3,29.8z"/>
	<path class="st0" d="M23.3,29.6c0.5,0,0.9-0.4,0.9-0.9v-0.9c0-0.5-0.4-0.9-0.9-0.9c-0.5,0-0.9,0.4-0.9,0.9v0.9
		C22.4,29.2,22.8,29.6,23.3,29.6z"/>
	<path class="st0" d="M17.9,30.3c-0.9,0-1.6-0.4-2.2-1c-0.4-0.4-0.4-1.1,0.1-1.6c0.2-0.2,0.4-0.3,0.7-0.3c0.3,0,0.6,0.1,0.9,0.4
		c0.2,0.2,0.3,0.2,0.5,0.2s0.3-0.1,0.5-0.2c0.2-0.2,0.6-0.4,0.9-0.4c0.3,0,0.5,0.1,0.7,0.3c0.5,0.5,0.5,1.2,0.1,1.6
		C19.5,29.9,18.7,30.3,17.9,30.3z"/>
	<path class="st0" d="M17.9,30.1c0.7,0,1.5-0.4,2-0.9c0.4-0.4,0.3-0.9-0.1-1.3c-0.4-0.4-0.9-0.3-1.3,0.1c-0.2,0.2-0.4,0.3-0.6,0.3
		c-0.3,0-0.5-0.1-0.6-0.3c-0.4-0.4-0.9-0.5-1.3-0.1c-0.4,0.4-0.5,0.9-0.1,1.3C16.4,29.8,17.2,30.1,17.9,30.1z"/>
	<path class="st0" d="M14.8,9.7c-0.6,0-1.1-0.6-1.1-1.1c0-0.7,0.6-1.1,1.1-1.1h33.1C48.6,7.5,49,8,49,8.6c0,0.7-0.6,1.1-1.1,1.1
		H14.8z"/>
	<path class="st0" d="M14.8,9.5h33.1c0.5,0,0.9-0.4,0.9-0.9c0-0.5-0.4-0.9-0.9-0.9H14.8c-0.5,0-0.9,0.4-0.9,0.9
		C13.9,9.1,14.3,9.5,14.8,9.5z"/>
	<path class="st0" d="M35.5,19.7c-0.7,0-1.1-0.6-1.1-1.1c0-0.7,0.6-1.1,1.1-1.1h19.7c0.7,0,1.1,0.5,1.1,1.1c0,0.7-0.6,1.1-1.1,1.1
		H35.5z"/>
	<path class="st0" d="M55.2,17.7H35.5c-0.5,0-0.9,0.4-0.9,0.9c0,0.5,0.4,0.9,0.9,0.9h19.7c0.5,0,0.9-0.4,0.9-0.9
		C56.1,18,55.8,17.7,55.2,17.7z"/>
	<path class="st0" d="M35.5,24.6c-0.7,0-1.1-0.6-1.1-1.1c0-0.7,0.6-1.1,1.1-1.1h19.7c0.7,0,1.1,0.6,1.1,1.1c0,0.7-0.6,1.1-1.1,1.1
		H35.5z"/>
	<path class="st0" d="M55.2,22.5H35.5c-0.5,0-0.9,0.4-0.9,0.9c0,0.5,0.4,0.9,0.9,0.9h19.7c0.5,0,0.9-0.4,0.9-0.9
		C56.1,23,55.8,22.5,55.2,22.5z"/>
	<path class="st0" d="M35.5,29.5c-0.7,0-1.1-0.6-1.1-1.1c0-0.7,0.6-1.1,1.1-1.1h19.7c0.7,0,1.1,0.6,1.1,1.1c0,0.7-0.6,1.1-1.1,1.1
		H35.5z"/>
	<path class="st0" d="M55.2,27.4H35.5c-0.5,0-0.9,0.4-0.9,0.9c0,0.5,0.4,0.9,0.9,0.9h19.7c0.5,0,0.9-0.4,0.9-0.9
		C56.1,27.9,55.8,27.4,55.2,27.4z"/>
	<path class="st0" d="M35.5,44.1c-0.7,0-1.1-0.6-1.1-1.1c0-0.7,0.6-1.1,1.1-1.1h19.7c0.7,0,1.1,0.6,1.1,1.1c0,0.7-0.6,1.1-1.1,1.1
		H35.5z"/>
	<path class="st0" d="M55.2,42.1H35.5c-0.5,0-0.9,0.4-0.9,0.9c0,0.5,0.4,0.9,0.9,0.9h19.7c0.5,0,0.9-0.4,0.9-0.9
		C56.1,42.5,55.8,42.1,55.2,42.1z"/>
	<path class="st0" d="M9.2,45.4c-0.7,0-1.1-0.6-1.1-1.1c0-1.5,0.3-2.8,0.8-4.1c-2.8-1-4.7-3.5-4.7-6.4v-7.3
		c0-7.6,6.2-13.8,13.7-13.8s13.7,6.2,13.7,13.8v7.3c0,3-1.9,5.6-4.7,6.4c0.6,1.2,0.8,2.6,0.8,4c0,0.7-0.6,1.1-1.1,1.1H9.2z
		 M25.5,43.2c-0.1-1-0.5-2.1-1.2-3.1c-0.6-1-1.4-1.7-1.9-2.1c-1.4,0.6-3,1-4.5,1c-1.7,0-3.2-0.3-4.5-0.9l0,0
		c-0.5,0.4-1.2,1.1-1.9,2.1c-0.6,1-1,2.1-1.2,3.1H25.5z M17.9,15c-6.3,0-11.5,5.2-11.5,11.6v7.3c0,2.2,1.5,4,3.6,4.4
		c0.5-0.6,0.9-1.1,1.4-1.5c-3-2.2-4.7-5.6-4.7-9.3c0-1,0.2-2.2,0.5-3.3c0.1-0.4,0.3-0.7,0.6-0.9c0,0,0.1,0,0.4-0.1
		c1-0.3,4.1-1.3,5.8-3.2c0.4-0.4,0.9-0.6,1.5-0.6c0.3,0,0.7,0.1,1.1,0.4c1.9,1.3,5.8,3.5,11,3.5c0.5,0,0.9,0.3,1,0.8
		c0.3,1.1,0.5,2.3,0.5,3.3c0,3.8-1.7,7.1-4.7,9.3c0.4,0.4,0.9,0.9,1.4,1.5c2.1-0.4,3.6-2.2,3.6-4.4v-7.2C29.4,20.2,24.3,15,17.9,15z
		 M9.1,25.4c-0.2,0.7-0.2,1.4-0.2,2.1c0,3.4,1.9,6.6,5.1,8.4c1.2,0.6,2.5,0.9,4,0.9c1.4,0,2.8-0.3,4-0.9c3.1-1.6,5.1-4.8,5.1-8.3
		c0-0.7-0.1-1.4-0.2-1.9c-5.5-0.3-9.6-2.7-11.2-3.8C13.6,23.9,10.5,25,9.1,25.4z"/>
	<path class="st0" d="M17.9,12.9c-7.5,0-13.5,6.1-13.5,13.6v7.3c0,3,2,5.5,4.8,6.3c-0.6,1.1-0.9,2.5-0.9,4.2c0,0.5,0.4,0.9,0.9,0.9
		h17.4c0.5,0,0.9-0.4,0.9-0.9c0-1.7-0.4-3.1-0.9-4.2c2.8-0.7,4.8-3.2,4.8-6.3v-7.3C31.5,19,25.4,12.9,17.9,12.9z M10.1,43.4
		c0.1-1.2,0.6-2.4,1.2-3.4c0.7-1.1,1.6-1.9,2-2.2c0,0,0.1,0,0.1,0.1c1.4,0.6,2.9,0.9,4.5,0.9c1.6,0,3.2-0.4,4.5-1
		c0.5,0.4,1.3,1.1,2,2.2c0.6,1,1.1,2.2,1.2,3.4H10.1z M8.7,27.5c0-0.7,0.1-1.5,0.3-2.2c1.3-0.4,4.6-1.5,6.6-3.7
		c1.6,1.1,5.7,3.6,11.4,3.9c0.2,0.6,0.3,1.4,0.3,2.1c0,3.7-2.1,6.9-5.2,8.4c-1.3,0.6-2.7,0.9-4.1,0.9c-1.4,0-2.8-0.3-4.1-0.9
		C10.8,34.4,8.7,31.2,8.7,27.5z M29.6,33.8c0,2.3-1.7,4.3-3.9,4.6c-0.6-0.7-1.1-1.3-1.6-1.8c3-2,4.8-5.4,4.8-9.3
		c0-1.1-0.2-2.2-0.5-3.2c-0.1-0.4-0.5-0.6-0.8-0.6c-5.6,0-9.6-2.5-11.1-3.5c-0.3-0.2-0.6-0.4-1-0.4c-0.6,0-1,0.2-1.4,0.6
		c-2,2.3-6.1,3.2-6.2,3.3c-0.3,0.2-0.5,0.5-0.6,0.7c-0.3,1-0.5,2.1-0.5,3.2c0,3.8,1.9,7.2,4.8,9.3c-0.5,0.5-1,1-1.6,1.8
		c-2.2-0.4-3.9-2.3-3.9-4.6v-7.3c0-6.5,5.3-11.8,11.7-11.8c6.4,0,11.7,5.3,11.7,11.8V33.8z"/>
	<path class="st0" d="M0.5,52.6L0.5,52.6l-0.4,0V7.6l0-0.2V2.5h0V2.1h62.2v0h0.4V7h0v40l0,0.2v4.9h0v0.4H0.5z M60.4,50.3v-46h-1.3
		l0,0l-0.1,0c-0.1,0-0.2,0-0.3,0H2.3v1.6l0,0.2l0,44.1H60.4z"/>
	<path class="st0" d="M62.4,6.8V2.3H62v0h-3.3h-1.4H4.7H4H0.2v0.4h0v4.7h0v40.4v0.7v3.8h0.4v0H4h1.3h52.6h0.7h3.8v-0.4h0v-4.7h0
		L62.4,6.8L62.4,6.8z M60.6,50.5h-1.9h-0.8H5.4h-1H2.1v-2.3l0,0V6.2c0,0,0,0,0,0v-2h2.1h0.5h52.6h1.3c0.1,0,0.2,0,0.3,0c0,0,0,0,0,0
		h1.6v2.1c0,0,0,0,0,0v42c0,0,0,0,0,0V50.5z"/>
</g>
</svg>
