<?xml version="1.0" encoding="utf-8"?>
<!-- Generator: Adobe Illustrator 24.0.1, SVG Export Plug-In . SVG Version: 6.00 Build 0)  -->
<svg version="1.1" id="Livello_1" xmlns="http://www.w3.org/2000/svg" xmlns:xlink="http://www.w3.org/1999/xlink" x="0px" y="0px"
	 viewBox="0 0 56 54.6" style="enable-background:new 0 0 56 54.6;" xml:space="preserve">
	 	<style type="text/css">
		svg {
		fill: #868e96;
		width: 56px;
		height: 56px;
		-webkit-transition: fill cubic-bezier(0.25, 0.46, 0.45, 0.94) 400ms;
 		-moz-transition: fill cubic-bezier(0.25, 0.46, 0.45, 0.94) 400ms;
 		transition: fill cubic-bezier(0.25, 0.46, 0.45, 0.94) 400ms;
		}
		svg:hover {
		fill: #e657aa;
		}
	</style>
<g>
	<path d="M55.4,16.9c-0.1,0-5.5-2.9-14.7-4.6L40.4,12L40,10.5c-0.9-3.7-4.1-6.3-8-6.3h-8.2c-3.8,0-7.1,2.6-8,6.3L15.6,12l-0.3,0.3
		C6.1,14,0.7,16.9,0.6,16.9c-0.4,0.2-0.6,0.6-0.6,1v18.5c0,7.2,5.9,13,13,13c0.6,0,1.1-0.5,1.1-1.1c0-0.6-0.5-1.1-1.1-1.1
		c-5.9,0-10.8-4.8-10.8-10.8V18.9l0.2-0.4c1.8-0.8,6.9-2.9,14.2-4.2c0.4-0.1,0.8-0.4,0.9-0.9l0.6-2.5c0.6-2.7,3-4.5,5.7-4.5h8.2
		c2.7,0,5.1,1.9,5.7,4.5l0.6,2.5c0.1,0.5,0.5,0.8,0.9,0.9c7.2,1.3,12.3,3.3,14.2,4.2l0.3,0.4v17.5c0,5.9-4.8,10.8-10.8,10.8
		c-0.6,0-1.1,0.5-1.1,1.1c0,0.6,0.5,1.1,1.1,1.1c7.2,0,13-5.9,13-13V17.9C56,17.5,55.8,17.1,55.4,16.9z"/>
	<path d="M10,9.1c-0.1,0-0.2,0-0.3,0c-1.8,0.4-3.7,1-5.4,1.5c-0.3,0.1-0.5,0.3-0.7,0.6c-0.1,0.3-0.2,0.6-0.1,0.9
		c0.2,0.5,0.6,0.8,1.1,0.8c0.1,0,0.2,0,0.3-0.1c1.7-0.6,3.4-1,5.2-1.5c0.3-0.1,0.5-0.2,0.7-0.5c0.2-0.3,0.2-0.6,0.1-0.9
		C11,9.5,10.6,9.1,10,9.1z"/>
	<path d="M28,50.4c-9.8,0-17.7-7.9-17.7-17.7C10.3,23,18.3,15,28,15c9.8,0,17.7,7.9,17.7,17.7C45.7,42.5,37.8,50.4,28,50.4z
		 M28,17.3c-8.5,0-15.4,6.9-15.4,15.4c0,8.5,6.9,15.4,15.4,15.4s15.4-6.9,15.4-15.4C43.4,24.2,36.5,17.3,28,17.3z"/>
	<path d="M38.5,31.6c-0.6,0-1.1-0.4-1.2-1c-1.1-4.2-4.9-7.2-9.2-7.2c-0.7,0-1.3-0.6-1.3-1.3c0-0.7,0.6-1.3,1.3-1.3
		c5.5,0,10.3,3.7,11.7,9.1c0.2,0.7-0.2,1.4-0.9,1.6C38.7,31.6,38.6,31.6,38.5,31.6z"/>
	<path d="M38.2,38c-0.1,0-0.3,0-0.4-0.1c-0.7-0.2-1-1-0.8-1.6c0.1-0.2,0.1-0.4,0.2-0.5c0.2-0.7,0.9-1,1.6-0.8c0.7,0.2,1,0.9,0.8,1.6
		c-0.1,0.2-0.1,0.4-0.2,0.6C39.2,37.7,38.7,38,38.2,38z"/>
</g>
</svg>
