<?xml version="1.0" encoding="utf-8"?>
<!-- Generator: Adobe Illustrator 24.0.1, SVG Export Plug-In . SVG Version: 6.00 Build 0)  -->
<svg version="1.1" id="Livello_1" xmlns="http://www.w3.org/2000/svg" xmlns:xlink="http://www.w3.org/1999/xlink" x="0px" y="0px"
	 viewBox="0 0 56 54.6" style="enable-background:new 0 0 56 54.6;" xml:space="preserve">
	<style type="text/css">
		svg {
		fill: #868e96;
		width: 56px;
		height: 56px;
		-webkit-transition: fill cubic-bezier(0.25, 0.46, 0.45, 0.94) 400ms;
 		-moz-transition: fill cubic-bezier(0.25, 0.46, 0.45, 0.94) 400ms;
 		transition: fill cubic-bezier(0.25, 0.46, 0.45, 0.94) 400ms;
		}
		svg:hover {
		fill: #e657aa;
		}
	</style>
<path class="st0" d="M28,0C12.5,0,0,12.5,0,28c0,12.4,8,22.9,19.1,26.6c1.4,0.3,1.9-0.6,1.9-1.3c0-0.7,0-2.4,0-4.8
	c-7.8,1.7-9.4-3.8-9.4-3.8c-1.3-3.2-3.1-4.1-3.1-4.1c-2.5-1.7,0.2-1.7,0.2-1.7c2.8,0.2,4.3,2.9,4.3,2.9c2.5,4.3,6.6,3,8.1,2.3
	c0.3-1.8,1-3,1.8-3.7c-6.2-0.7-12.8-3.1-12.8-13.8c0-3.1,1.1-5.6,2.9-7.5c-0.3-0.7-1.2-3.6,0.3-7.4c0,0,2.4-0.8,7.7,2.9
	c2.2-0.6,4.6-0.9,7-0.9c2.4,0,4.8,0.3,7,0.9c5.3-3.6,7.7-2.9,7.7-2.9c1.5,3.9,0.6,6.7,0.3,7.4c1.8,2,2.9,4.5,2.9,7.5
	c0,10.8-6.5,13.1-12.8,13.8c1,0.9,1.9,2.6,1.9,5.2c0,3.7,0,6.8,0,7.7c0,0.7,0.5,1.6,1.9,1.3C48,50.8,56,40.4,56,28
	C56,12.5,43.5,0,28,0z"/>
</svg>
