<?xml version="1.0" encoding="utf-8"?>
<!-- Generator: Adobe Illustrator 24.0.1, SVG Export Plug-In . SVG Version: 6.00 Build 0)  -->
<svg version="1.1" id="Livello_1" xmlns="http://www.w3.org/2000/svg" xmlns:xlink="http://www.w3.org/1999/xlink" x="0px" y="0px"
	 viewBox="0 0 49.6 54.6" style="enable-background:new 0 0 49.6 54.6;" xml:space="preserve">
	<style type="text/css">
		svg {
		fill: #868e96;
		width: auto;
		height: 56px;
		-webkit-transition: fill cubic-bezier(0.25, 0.46, 0.45, 0.94) 400ms;
 		-moz-transition: fill cubic-bezier(0.25, 0.46, 0.45, 0.94) 400ms;
 		transition: fill cubic-bezier(0.25, 0.46, 0.45, 0.94) 400ms;
		}
		svg:hover {
		fill: #e657aa;
		}
	</style>
<g id="XMLID_106_">
	<path id="XMLID_107_" class="st0" d="M1.6,0C1.1,0,0.7,0.4,0.7,0.9l4.2,47.5c0,0.5,0.5,1,1,1.2l18,5c0.5,0.1,1.3,0.1,1.8,0l18-5
		c0.5-0.1,0.9-0.7,1-1.2l4.2-47.5C48.9,0.4,48.5,0,48,0H1.6z M39.8,10.9c0,0.4-0.1,1.2-0.2,1.7l-0.1,1.2c0,0.5-0.1,1.2-0.1,1.6
		c0,0.4-0.1,0.7-0.1,0.7s-0.4,0-0.9,0H25.7c-0.5,0-0.9,0-0.9,0s-0.4,0-0.9,0h-6.7c-0.5,0-0.9,0.4-0.8,0.9l0.4,4.4
		c0,0.5,0.5,0.9,1,0.9h6.1c0.5,0,0.9,0,0.9,0s0.4,0,0.9,0h10.6c0.5,0,1.3,0,1.7,0s0.8,0.4,0.7,0.8c0,0.4-0.1,1.2-0.2,1.7l-1.3,14.1
		c0,0.5-0.1,1.1-0.1,1.4c0,0.3-0.4,0.6-0.9,0.8L25.7,44c-0.5,0.1-0.9,0.2-0.9,0.2s-0.4-0.1-0.9-0.2l-10.6-2.9
		c-0.5-0.1-0.9-0.7-1-1.2l-0.7-7.7c0-0.5,0.3-0.9,0.8-0.9h1c0.5,0,1.3,0,1.8,0h1.4c0.5,0,0.9,0.4,1,0.9l0.3,3c0,0.5,0.5,1,1,1.1
		l5,1.3c0.5,0.1,0.9,0.2,0.9,0.2s0.4-0.1,0.9-0.2l5-1.3c0.5-0.1,0.9-0.6,1-1.1l0.5-6c0-0.5-0.3-0.9-0.8-0.9h-5.6c-0.5,0-0.9,0-0.9,0
		s-0.4,0-0.9,0H12.2c-0.5,0-0.9-0.4-1-0.9L9.9,12.6c0-0.5-0.1-1.3-0.2-1.7c0-0.4,0.3-0.8,0.8-0.8h13.4c0.5,0,0.9,0,0.9,0
		s0.4,0,0.9,0H39C39.5,10.1,39.9,10.4,39.8,10.9z"/>
</g>
</svg>
