<?xml version="1.0" encoding="utf-8"?>
<!-- Generator: Adobe Illustrator 24.0.1, SVG Export Plug-In . SVG Version: 6.00 Build 0)  -->
<svg version="1.1" id="Livello_1" xmlns="http://www.w3.org/2000/svg" xmlns:xlink="http://www.w3.org/1999/xlink" x="0px" y="0px"
	 viewBox="0 0 56 54.6" style="enable-background:new 0 0 56 54.6;" xml:space="preserve">
	<style type="text/css">
		svg {
		fill: #868e96;
		width: 56px;
		height: 56px;
		-webkit-transition: fill cubic-bezier(0.25, 0.46, 0.45, 0.94) 400ms;
 		-moz-transition: fill cubic-bezier(0.25, 0.46, 0.45, 0.94) 400ms;
 		transition: fill cubic-bezier(0.25, 0.46, 0.45, 0.94) 400ms;
		}
		svg:hover {
		fill: #e657aa;
		}
	</style>
<g>
	<path d="M20.2,25.1c-0.6,0-1.1,0.5-1.1,1.1c0,0.6,0.5,1.1,1.1,1.1c0.6,0,1.1-0.5,1.1-1.1C21.3,25.6,20.8,25.1,20.2,25.1"/>
	<path d="M16.7,52.2c-0.6,0-1.1,0.5-1.1,1.1c0,0.6,0.5,1.1,1.1,1.1c0.6,0,1.1-0.5,1.1-1.1C17.8,52.7,17.3,52.2,16.7,52.2"/>
	<path d="M35.4,12.6c-0.4-0.4-1.1-0.5-1.5-0.1l-11,10c-0.4,0.4-0.5,1.1-0.1,1.5c0.2,0.2,0.5,0.4,0.8,0.4c0.3,0,0.5-0.1,0.7-0.3
		l11-10C35.7,13.7,35.8,13,35.4,12.6"/>
	<path d="M19.5,44.5l7.1-0.9c0.3,0,0.7-0.1,1-0.3c0,0,0,0,0,0c0,0,0,0,0,0c0,0,0,0,0,0c0,0,0,0,0,0c0.4-0.2,0.7-0.4,1-0.7l20.9-23.7
		l4-4.5c1.2-1.3,1.2-3.3-0.1-4.5l-8.8-8.8c-1.2-1.3-3.2-1.3-4.5-0.1l-4.3,3.9c-0.1,0-0.2,0.1-0.2,0.2c0,0-0.1,0.1-0.1,0.1L12.1,26.1
		c-0.3,0.3-0.6,0.6-0.7,1c0,0,0,0,0,0c0,0,0,0,0,0c0,0,0,0,0,0c0,0,0,0,0,0c-0.1,0.3-0.2,0.6-0.3,1l-0.9,7.1l-2.8,2.8
		c-0.6,0.6-1,1.4-1,2.3c0,0.5,0.1,1,0.3,1.4l-6.4,6.4C0,48.5-0.1,49,0.1,49.4c0.2,0.4,0.6,0.7,1,0.7h9.3c0.3,0,0.6-0.1,0.8-0.3
		l1.7-1.7c0.4,0.2,0.9,0.3,1.4,0.3c0.8,0,1.7-0.3,2.3-1L19.5,44.5z M27.2,40.9L13.8,27.5L36.3,7.4l10.9,10.9L27.2,40.9z M41.6,2.7
		C41.6,2.7,41.6,2.7,41.6,2.7c0.4-0.4,1.1-0.4,1.5,0l8.8,8.8c0.4,0.4,0.4,1.1,0,1.5c0,0,0,0,0,0l-3.2,3.6L38,5.9L41.6,2.7z M10,47.9
		H3.7l4.4-4.4l3.1,3.1L10,47.9z M13.6,45.8l-4.6-4.6c-0.4-0.4-0.4-1.1,0-1.5l3.1-3.1c0,0,0,0,0,0c0,0,0,0,0,0c0,0,0,0,0,0
		c0,0,0,0,0,0c0,0,0,0,0-0.1c0,0,0,0,0,0c0,0,0,0,0-0.1c0,0,0,0,0,0c0,0,0,0,0-0.1c0,0,0,0,0,0l0-0.1c0,0,0,0,0,0c0,0,0,0,0-0.1l0,0
		l0.7-6.1l11.8,11.8l-6,0.7c0,0,0,0,0,0c0,0,0,0-0.1,0c0,0,0,0,0,0c0,0,0,0-0.1,0c0,0,0,0,0,0c0,0,0,0-0.1,0c0,0,0,0,0,0
		c0,0,0,0,0,0c0,0,0,0,0,0c0,0,0,0,0,0l0,0c0,0,0,0,0,0c0,0,0,0,0,0c0,0,0,0,0,0l-3.1,3.1C14.7,46.2,14,46.2,13.6,45.8"/>
	<path d="M54.9,52.2H21.1c-0.6,0-1.1,0.5-1.1,1.1c0,0.6,0.5,1.1,1.1,1.1h33.8c0.6,0,1.1-0.5,1.1-1.1C56,52.7,55.5,52.2,54.9,52.2"/>
	<path d="M12.4,52.2H1.1c-0.6,0-1.1,0.5-1.1,1.1c0,0.6,0.5,1.1,1.1,1.1h11.3c0.6,0,1.1-0.5,1.1-1.1C13.5,52.7,13,52.2,12.4,52.2"/>
</g>
</svg>
