<?xml version="1.0" encoding="utf-8"?>
<!-- Generator: Adobe Illustrator 24.0.1, SVG Export Plug-In . SVG Version: 6.00 Build 0)  -->
<svg version="1.1" id="Livello_1" xmlns="http://www.w3.org/2000/svg" xmlns:xlink="http://www.w3.org/1999/xlink" x="0px" y="0px"
	 viewBox="0 0 56 54.6" style="enable-background:new 0 0 56 54.6;" xml:space="preserve">
	<style type="text/css">
		svg {
		fill: #868e96;
		width: 56px;
		height: 56px;
		-webkit-transition: fill cubic-bezier(0.25, 0.46, 0.45, 0.94) 400ms;
 		-moz-transition: fill cubic-bezier(0.25, 0.46, 0.45, 0.94) 400ms;
 		transition: fill cubic-bezier(0.25, 0.46, 0.45, 0.94) 400ms;
		}
		svg:hover {
		fill: #e657aa;
		}
	</style>
<path class="st0" d="M0.7,0v54.6h54.6V0H0.7z M30.7,41.6c0,5.7-3.1,8.4-7.7,8.4c-4.2,0-6.5-2.3-7.8-5l4.2-2.8
	c0.8,1.6,1.6,2.9,3.3,2.9c1.7,0,2.8-0.7,2.8-3.5V22.6h5.2V41.6z M42.9,50c-4.8,0-7.9-2.5-9.4-5.7l4.2-2.7c1.1,2,2.5,3.4,5.1,3.4
	c2.1,0,3.5-1.2,3.5-2.7c0-1.9-1.4-2.6-3.7-3.7L41.2,38c-3.7-1.7-6.2-3.8-6.2-8.4c0-4.2,2.9-7.4,7.6-7.4c3.3,0,5.7,1.2,7.4,4.4
	l-4,2.8c-0.9-1.7-1.8-2.4-3.3-2.4c-1.5,0-2.5,1-2.5,2.4c0,1.6,1,2.3,3.2,3.4l1.3,0.6c4.4,2,6.9,4.1,6.9,8.7
	C51.5,47.2,47.8,50,42.9,50z"/>
</svg>
