<?xml version="1.0" encoding="utf-8"?>
<!-- Generator: Adobe Illustrator 24.0.1, SVG Export Plug-In . SVG Version: 6.00 Build 0)  -->
<svg version="1.1" id="Livello_1" xmlns="http://www.w3.org/2000/svg" xmlns:xlink="http://www.w3.org/1999/xlink" x="0px" y="0px"
	 viewBox="0 0 62.7 54.6" style="enable-background:new 0 0 62.7 54.6;" xml:space="preserve">
	<style type="text/css">
		svg {
		fill: #868e96;
		width: auto;
		height: 56px;
		-webkit-transition: fill cubic-bezier(0.25, 0.46, 0.45, 0.94) 400ms;
 		-moz-transition: fill cubic-bezier(0.25, 0.46, 0.45, 0.94) 400ms;
 		transition: fill cubic-bezier(0.25, 0.46, 0.45, 0.94) 400ms;
		}
		svg:hover {
		fill: #e657aa;
		}
	</style>
<g>
	<g>
		<path class="st0" d="M5.3,16.8c0.3,0.4,7.7,2.9,10.3,5.9s3.7,5.7,3.4,8.2c-0.3,2.6-1.9,2.6-2.6,3.5c-0.7,0.9-1.7,2.1-3.5,2
			c-2.4-0.1-4.8-1.3-6.6-5.5s-1.7-8.1-1.5-10.2C4.9,18.4,5.3,16.8,5.3,16.8z"/>
		<polygon class="st0" points="5.5,17.4 16.6,34 16,34.6 		"/>
		<path class="st0" d="M33.7,0.5c-0.6,0.8-12.2,6.8-15.8,12.5c-3.5,5.7-4.5,10.2-3.2,14.3s3.7,4,5.2,5.4c1.3,1.3,3.2,3,6.3,2.4
			c3.9-0.9,7.7-3.5,9.6-10.9s0.7-13.9-0.1-17.4C34.8,3.3,33.7,0.5,33.7,0.5L33.7,0.5z"/>
		<polygon class="st0" points="33.6,1.8 19.4,32.2 20.2,33.1 		"/>
		<path class="st0" d="M18.5,32.5c-1.1,0.9-7.3,4.5-11,6.1c-0.6,0.1-0.1-0.4-0.2-0.8C6.4,40,3.4,40.2,0,39.6v0.8
			c0.2,0,0.4,0.1,0.6,0.1c1.6,0.2,3.9,0.8,5.2,0.6c0.4-0.1,0.6-0.6,1.1-0.9c0.4-0.3,1-0.3,1.5-0.6c2.4-1.1,5-3.2,7.2-4.5
			c1.9-1,3.7-1.6,5.6-2.1c-0.4-0.4-0.9-0.9-1.5-1.3C19.3,31.9,18.8,32.1,18.5,32.5z"/>
		<path class="st0" d="M43.6,25.2c-1.5,1-4.3,4-5.9,4.4c-0.8,0.2-2,0.1-3.2-0.1c0,0.2-0.1,0.4-0.2,0.6c1.8,0.1,3.7,0.2,5.2-0.1
			c0.8-0.1-0.6-0.6,0.1-1c1.5-1.2,3-2.4,4.5-3.6c0.3,0.1,0.9-0.4,1.2,0c0.6,0.1,0-0.7,0.4-1C44.9,23.9,44.1,24.8,43.6,25.2z"/>
	</g>
	<path class="st0" d="M22.2,47.7c-1.3,1.5-2.8,2.1-4.3,2.1c-0.4,0-0.8,0-1.2-0.1c-0.3-0.1-0.9-0.3-1.5-0.6c-0.6-0.2-1-0.4-1.5-0.6
		c-0.8,0.9-1.5,1.3-2.1,1.3c-0.2,0-0.4-0.1-0.6-0.2c-0.1-0.1-0.2-0.3-0.2-0.6c0-0.4,0.2-0.8,0.7-1.1c0.4-0.3,1-0.6,1.9-0.7
		c0.3-0.4,0.6-0.9,0.7-1.3c0.1-0.4,0.1-1.1,0.2-2.1c0.1-2,0.7-3.7,1.7-4.8c1-1.1,2.1-1.8,3.2-1.8c0.8,0,1.5,0.2,2,0.8
		c0.6,0.6,0.8,1.1,0.8,2c0,0.9-0.2,1.7-0.8,2.5c-0.6,0.7-1.1,1-1.9,1c-0.3,0-0.7-0.1-0.9-0.3c-0.2-0.2-0.3-0.4-0.3-0.8
		c0-0.2,0-0.4,0.1-0.7c0.1,0.2,0.3,0.2,0.6,0.2c0.4,0,0.8-0.2,1-0.7c0.3-0.4,0.4-1,0.4-1.7c0-0.6-0.1-0.9-0.3-1.2
		c-0.2-0.3-0.6-0.4-0.9-0.4c-0.4,0-0.9,0.2-1.1,0.6c-0.2,0.3-0.4,0.8-0.6,1.2c-0.1,0.4-0.2,1.2-0.3,2.4c-0.1,1.1-0.3,2-0.6,2.8
		c-0.2,0.8-0.8,1.7-1.6,2.5c0.4,0,0.9,0,1.3,0.1c0.3,0.1,0.9,0.2,1.6,0.6c0.7,0.2,1.2,0.3,1.8,0.3c1,0,1.9-0.4,2.8-1.5L22.2,47.7
		L22.2,47.7z M28.7,47.7c-0.8,0.8-1.5,1.2-2,1.6c-0.6,0.3-1.2,0.6-2,0.6c-0.8,0-1.5-0.2-1.9-0.8c-0.4-0.6-0.8-1.2-0.8-2
		c0-1.2,0.4-2.4,1.3-3.4c0.9-1,1.8-1.5,2.9-1.5c0.6,0,1,0.1,1.3,0.4c0.3,0.3,0.4,0.7,0.4,1.1c0,1.2-1.3,2.2-3.9,2.9
		c0.2,1.1,0.9,1.7,1.8,1.7c0.3,0,0.8-0.1,1.1-0.3c0.3-0.2,0.9-0.7,1.6-1.3v1H28.7z M24.1,46c1.5-0.4,2.2-1.2,2.2-2.4
		c0-0.6-0.2-0.9-0.7-0.9c-0.3,0-0.8,0.3-1.1,0.9C24.3,44.3,24.1,45.1,24.1,46L24.1,46z M38.1,47.7c-0.9,0.9-1.6,1.5-2,1.8
		c-0.4,0.2-0.8,0.4-1.1,0.4c-0.9,0-1.3-0.8-1.3-2.5c-0.6,0.8-1.1,1.5-1.6,1.9c-0.4,0.4-1,0.6-1.6,0.6c-0.6,0-1-0.2-1.3-0.7
		c-0.3-0.4-0.6-1.1-0.6-1.8c0-0.9,0.2-1.7,0.7-2.5c0.4-0.8,1.1-1.5,1.9-1.9c0.8-0.4,1.5-0.8,2-0.8c0.8,0,1.2,0.3,1.6,1l1.8-1H37
		l-0.8,2.6c-0.4,1.3-0.6,2.2-0.6,2.7c0,0.6,0.2,0.8,0.6,0.8c0.2,0,0.4-0.1,0.8-0.3c0.2-0.2,0.7-0.6,1.1-1.1V47.7L38.1,47.7z
		 M31.7,48.1c0.6,0,1.1-0.4,1.7-1.5s0.8-1.9,0.8-2.8c0-0.3-0.1-0.6-0.2-0.8c-0.1-0.2-0.3-0.2-0.6-0.2c-0.6,0-1.1,0.4-1.7,1.5
		c-0.6,1-0.8,1.9-0.8,2.8c0,0.3,0.1,0.6,0.2,0.8C31.3,48,31.5,48.1,31.7,48.1L31.7,48.1z M45.3,47.7c-0.6,0.7-1.2,1.2-1.8,1.6
		s-1.1,0.6-1.6,0.6c-0.2,0-0.6-0.1-0.9-0.2c-0.2,1.3-0.4,2.7-0.7,4.1c-0.6,0.1-1.3,0.2-2.2,0.3c0.2-1.6,0.6-3.7,1-6.3
		c-0.1-0.1-0.2-0.4-0.3-0.9l-0.7,0.8h-0.2v-0.8l1.7-1.8c0.3-1.6,0.6-2.7,0.8-3.5c0.2-0.7,0.4-1.5,0.8-2.4s0.6-1.3,0.7-1.5
		c0.1-0.1,0.3-0.2,0.7-0.3c0.3-0.1,0.8-0.2,1.1-0.3C44,37,44.3,37,44.3,37c0.2,0,0.4,0.1,0.6,0.4c0.1,0.3,0.2,0.7,0.2,1.1
		c0,0.8-0.2,1.6-0.7,2.4c-0.4,0.8-1.2,1.7-2.5,2.8l-0.8,3.7c0.3,0.6,0.7,0.9,1.3,0.9c0.8,0,1.7-0.6,2.7-1.8L45.3,47.7L45.3,47.7z
		 M42.4,42.7c0.7-0.6,1.2-1.2,1.6-1.9c0.3-0.7,0.6-1.3,0.6-1.9c0-0.2,0-0.4-0.1-0.6s-0.2-0.2-0.3-0.2c-0.2,0-0.6,0.3-0.8,1
		C43,39.6,42.7,40.9,42.4,42.7z M51.1,47.7c-0.8,0.8-1.5,1.2-2.1,1.6c-0.6,0.3-1.1,0.6-1.7,0.6c-0.7,0-1.1-0.2-1.6-0.8
		c-0.3-0.4-0.6-1.1-0.6-2c0-1.2,0.2-2.7,0.8-4.5c0.6-1.7,1.2-3.4,1.9-4.8l2.2-0.8c0.1,0,0.1,0,0.1,0c0.2,0,0.3,0.1,0.4,0.3
		c0.1,0.2,0.1,0.6,0.1,1c0,1.2-0.2,2.4-0.8,3.5s-1.5,2.4-2.6,3.6c0,0.6-0.1,1-0.1,1.2c0,0.6,0.1,0.9,0.3,1.2
		c0.2,0.3,0.4,0.4,0.8,0.4s0.7-0.1,1-0.3c0.3-0.2,0.9-0.7,1.7-1.5V47.7L51.1,47.7z M47.7,44.2c0.8-0.8,1.3-1.8,1.8-2.8
		c0.4-1,0.7-1.9,0.7-2.7c0-0.2,0-0.4-0.1-0.6c-0.1-0.1-0.1-0.2-0.2-0.2c-0.2,0-0.6,0.6-0.9,1.6C48.5,40.7,48.1,42.2,47.7,44.2
		L47.7,44.2z M57.7,47.7c-0.8,0.8-1.5,1.2-2,1.6c-0.6,0.3-1.2,0.6-2,0.6c-0.8,0-1.5-0.2-1.9-0.8c-0.4-0.6-0.8-1.2-0.8-2
		c0-1.2,0.4-2.4,1.3-3.4c0.9-1,1.8-1.5,2.9-1.5c0.6,0,1,0.1,1.3,0.4c0.3,0.3,0.4,0.7,0.4,1.1c0,1.2-1.3,2.2-3.9,2.9
		c0.2,1.1,0.9,1.7,1.8,1.7c0.3,0,0.8-0.1,1.1-0.3s0.9-0.7,1.6-1.3L57.7,47.7L57.7,47.7z M53.1,46c1.5-0.4,2.2-1.2,2.2-2.4
		c0-0.6-0.2-0.9-0.7-0.9c-0.3,0-0.8,0.3-1.1,0.9S53.1,45.1,53.1,46L53.1,46z M62.7,47.7c-0.8,0.8-1.3,1.2-1.9,1.6
		c-0.6,0.3-1,0.6-1.6,0.6c-0.6,0-0.9-0.2-1.2-0.7c-0.3-0.4-0.4-1-0.4-1.7c0-0.6,0.1-1.5,0.4-2.5l0.3-1.3h-0.7l0.3-1.3h0.8l0.8-2.8
		l2.4-0.4l-0.9,3l1.2-0.1L62,43.3l-1.3,0.1l-0.6,2c-0.2,0.7-0.3,1.2-0.3,1.7c0,0.2,0.1,0.4,0.2,0.7s0.3,0.2,0.6,0.2
		c0.3,0,0.6-0.1,0.9-0.3s0.7-0.6,1.3-1.2V47.7L62.7,47.7z"/>
</g>
</svg>
