<?xml version="1.0" encoding="utf-8"?>
<!-- Generator: Adobe Illustrator 24.0.1, SVG Export Plug-In . SVG Version: 6.00 Build 0)  -->
<svg version="1.1" id="Livello_1" xmlns="http://www.w3.org/2000/svg" xmlns:xlink="http://www.w3.org/1999/xlink" x="0px" y="0px"
	 viewBox="0 0 66.6 54.6" style="enable-background:new 0 0 66.6 54.6;" xml:space="preserve">
<style type="text/css">
	svg {
		fill: #868e96;
		width: auto;
		height: 56px;
		-webkit-transition: fill cubic-bezier(0.25, 0.46, 0.45, 0.94) 400ms;
 		-moz-transition: fill cubic-bezier(0.25, 0.46, 0.45, 0.94) 400ms;
 		transition: fill cubic-bezier(0.25, 0.46, 0.45, 0.94) 400ms;
		}
		svg:hover {
		fill: #e657aa;
		}
</style>
<path class="st0" d="M55.9,54.6c-5.3,0-9.7-4.1-10.2-9.3H25.9c-0.4,5.2-4.9,9.3-10.2,9.3c-5.3,0-9.7-4.1-10.2-9.3H4
	c-2,0-3.6-1.5-3.6-3.3c0-1.3,2.1-9,6.5-14.1c-0.1-0.3-0.1-0.6,0-0.9c0.6-2.6,2.9-4.3,5.5-4.3h16.4c1.7,0,3.1,1.4,3.1,3.1V28
	c0.3,1.3,0.6,2.4,0.8,3.3c0.8,3.4,0.9,3.9,1.2,4.5l0.1,0.1c0.7,1,2.3,1.9,2.3,1.9c0.8,0.3,2.9,0.3,5.1,0.3l3.8,0
	c0.3,0,0.6-0.1,0.8-0.4c1.4-1.6,1.9-3.8,1.4-5.9c-0.7-2.9-1.3-5.3-1.7-7.1c-1.8-7.3-1.8-7.5-1.8-8.8c-1.5-1-2.2-2.9-1.7-4.6h-2
	c-0.1,0-0.2,0-0.3,0.1l-2.2,2.4c-0.2,0.2-0.5,0.3-0.8,0.3c-0.3,0-0.5-0.1-0.7-0.3c-0.4-0.4-0.4-1.1,0-1.5l2.2-2.4
	C38.7,9.3,39.4,9,40.1,9h3.4c0.5-0.4,1.2-0.7,1.9-0.8l-1.5-3.4H42l-0.5,1.7c-0.1,0.5-0.6,0.8-1,0.8c-0.1,0-0.2,0-0.3,0
	c-0.6-0.2-0.9-0.8-0.7-1.3l1.5-5.2C41,0.3,41.5,0,41.9,0c0.1,0,0.2,0,0.3,0c0.3,0.1,0.5,0.3,0.6,0.5C43,0.8,43,1.1,43,1.4l-0.4,1.3
	h2c0.4,0,0.8,0.2,1,0.6l2.1,4.8h3.9c0.7,0,1.3,0.4,1.6,1h1.5c0.9,0,1.7,0.8,1.7,1.7v2.9c0,0.9-0.8,1.7-1.7,1.7h-1.5
	c-0.3,0.6-0.9,1-1.6,1h-0.8l2.1,6.3l0,0c1.2,3.7,2.5,7.5,3.2,9.8c1.4,0,2.6,0.2,3.2,1.4c0.1,0.3,0.2,0.6,0.3,0.9
	c1.7,0.7,3.3,1.8,4.4,3.3c2.3,3.1,2.7,7.2,1,10.7C63.2,52.5,59.8,54.6,55.9,54.6z M47.8,45.3c0.5,4.1,3.9,7.2,8,7.2
	c4.5,0,8.1-3.6,8.1-8.1c0-3.2-2-6.2-4.9-7.4l-1.1,2.2c2.1,0.8,3.6,2.9,3.6,5.2c0,3.1-2.5,5.6-5.6,5.6c-2.8,0-5.1-2-5.5-4.7H47.8z
	 M7.7,45.3c0.4,4.1,3.9,7.2,8,7.2c4.1,0,7.6-3.1,8-7.2l-2.5,0C20.8,48,18.5,50,15.7,50s-5.1-2-5.5-4.7H7.7z M52.5,45.2
	c0.4,1.6,1.7,2.7,3.4,2.7c1.9,0,3.5-1.6,3.5-3.5c0-1.5-1-2.9-2.4-3.3l-0.6,1.2C55.6,43.8,54.1,44.8,52.5,45.2z M12.4,45.3
	c0.4,1.5,1.8,2.6,3.3,2.6s3-1.1,3.3-2.6H12.4z M14.8,33.3c-0.3,0-0.6,0-0.8,0c-0.9,0.1-2.2,0.3-3.9,0.8c-0.1,0-0.2,0.1-0.3,0.1
	l-0.1,0c-0.2,0.1-0.5,0.2-0.8,0.3c-1,0.5-1.9,1.1-2.7,1.8c-0.2,0.3-0.5,0.5-0.8,0.8c-0.9,0.9-2,1.8-2.8,4.4c-0.1,0.2,0,0.5,0.2,0.8
	c0.3,0.4,0.7,0.6,1.1,0.6c0.1,0,0.3,0,2.5,0l16.2,0c1.2,0,2.2-0.8,2.2-1.9C24.8,36.1,19.7,33.3,14.8,33.3z M51.4,43.1
	c1.3,0,2.4-0.7,3-1.8l3-6c0.1-0.1,0.1-0.2,0-0.3c-0.1-0.1-0.1-0.2-0.3-0.2c-0.4-0.1-0.9-0.1-1.4-0.1c-5,0-9,3.6-9.6,8.4H51.4z
	 M44.1,43.1c0.1-1,0.3-2,0.7-2.9l-3.6,0c-2.5,0-4.4-0.1-5.2-0.3l0,0c-1.5-0.4-3.3-1.8-4-3.3c-0.5-0.8-0.6-1.7-1.3-4.7
	c-0.2-0.8-0.4-1.7-0.6-2.7H8.7c-1.4,1.6-2.6,3.4-3.7,5.6c0.8-0.7,1.7-1.3,2.6-1.8c0.1-0.1,2.7-1.6,6.3-1.8c0.3,0,0.6,0,0.9,0
	c3.1,0,6.1,0.9,8.3,2.6c2.4,1.9,3.8,4.5,3.8,7.4c0,0.7-0.2,1.3-0.5,1.9H44.1z M45.9,16.5c0,0.6,0.1,1,1.6,7.3l1.8,7.5
	c0.3,1,0.3,2.1,0.2,3.1c1.3-0.8,2.8-1.4,4.3-1.6c-0.8-2.5-2.1-6.3-3.3-10l-2.1-6.2C48.5,16.5,46,16.5,45.9,16.5z M29.8,27v-1.2
	c0-0.5-0.4-1-1-1H12.4c-1.4,0-2.7,0.9-3.3,2.2H29.8z M46.4,10.3c-0.6,0-1.2,0-1.8,0.6c-0.5,0.5-0.7,1.2-0.6,1.8
	c0.1,0.7,0.6,1.2,1.2,1.5c0.3,0.1,0.4,0.2,2,0.2l4,0v-4.1L46.4,10.3z M54.3,13.4v-2.1h-0.9v2.1H54.3z"/>
<path class="st0" d="M63.8,38.4L63.8,38.4c-1.1-1.5-2.7-2.7-4.4-3.3c0-0.3-0.1-0.6-0.3-0.9c-0.6-1.2-1.8-1.3-3.2-1.3
	c-0.8-2.4-2.1-6.3-3.4-10.1l0,0l-1.4-4.2l0,0c-0.2-0.7-0.5-1.5-0.7-2.2h1.1c0.7,0,1.3-0.4,1.5-1h1.6c0.8,0,1.5-0.7,1.5-1.5v-2.9
	c0-0.8-0.7-1.5-1.5-1.5h-1.6c-0.2-0.6-0.8-1-1.5-1h-4.1l-2.2-5c-0.1-0.3-0.5-0.5-0.8-0.5h-2.2l0.5-1.6c0.1-0.5-0.1-0.9-0.6-1.1
	c-0.5-0.1-0.9,0.1-1.1,0.6L39.6,6c-0.1,0.5,0.1,0.9,0.6,1.1c0.5,0.1,0.9-0.1,1.1-0.6l0.5-1.9H44l1.7,3.8c-0.8,0.1-1.5,0.4-2.1,0.9
	h-3.5c-0.6,0-1.2,0.3-1.7,0.7l-2.2,2.4c-0.3,0.3-0.3,0.9,0,1.2c0.3,0.3,0.9,0.3,1.2,0l2.2-2.4c0.1-0.1,0.3-0.2,0.4-0.2h2.2
	c-0.6,1.7,0,3.7,1.6,4.7c0,1.7,0,1.3,3.5,16c0.5,2.2,0,4.4-1.4,6.1c-0.2,0.3-0.6,0.4-1,0.4c-4.4,0-7.8,0.1-8.9-0.3
	c0,0-1.7-0.9-2.3-2c0,0,0,0,0,0c0,0,0-0.1-0.1-0.1c0,0,0,0,0,0c-0.5-0.8-0.5-1.4-2-7.8v-2.2c0-1.6-1.3-2.9-2.9-2.9H12.4
	c-2.5,0-4.7,1.7-5.3,4.2c-0.1,0.3-0.1,0.6,0,0.9C2.7,33,0.6,40.7,0.6,42c0,1.7,1.5,3.1,3.4,3.1h1.8c0.3,5.2,4.7,9.3,10,9.3
	c5.3,0,9.6-4.1,10-9.3c15.1,0,19.6,0,20.1,0c0.4,5,4.5,9.3,10,9.3C64.1,54.4,68.8,44.9,63.8,38.4z M53.2,11.1h1.3v2.5h-1.3V11.1z
	 M12.4,24.6h16.4c0.6,0,1.2,0.5,1.2,1.2v1.4H8.9C9.4,25.7,10.8,24.6,12.4,24.6z M15.7,52.7L15.7,52.7c-4.3,0-7.9-3.4-8.2-7.6h2.9
	c0.3,2.7,2.6,4.7,5.4,4.7c2.7,0,5-2.1,5.4-4.7c2.4,0,0.5,0,2.9,0C23.6,49.3,20.1,52.7,15.7,52.7z M12.1,45.1h7.2
	c-0.3,1.7-1.8,3-3.6,3C14,48.1,12.5,46.8,12.1,45.1z M22.6,43.3c-19.9,0-18.6,0-18.7,0c-1-0.1-1.7-1.1-1.5-1.7
	c1.1-3.4,2.6-4,3.7-5.2c0.8-0.7,1.8-1.4,2.8-1.9c0.3-0.1,0.5-0.2,0.8-0.4C9.7,34.1,9.9,34,10,34c1.6-0.5,2.8-0.7,4-0.9
	c5.4-0.3,11.1,2.6,11.1,8.1C25,42.4,24,43.3,22.6,43.3z M44.3,43.3H26.1c0.5-0.6,0.7-1.3,0.7-2.1c0-2.9-1.3-5.4-3.7-7.3
	c-2.6-1.9-5.9-2.7-9.1-2.6c0,0,0,0,0,0c0,0,0,0,0,0c0,0,0,0,0,0c-3.6,0.2-6.2,1.7-6.2,1.7s0,0,0,0c-1,0.5-2,1.2-2.8,2
	c0,0,0,0-0.1,0.1c-0.1,0.1-0.2,0.2-0.4,0.4C5.6,33,6.9,30.8,8.6,29h21.6c1.3,5.5,1.4,6.5,2,7.6c0.8,1.5,2.5,2.8,3.9,3.2c0,0,0,0,0,0
	c0,0,0,0,0,0l0,0c1.2,0.4,5.3,0.3,9,0.3C44.6,41.1,44.4,42.2,44.3,43.3z M45.2,14.4c-1.5-0.6-1.8-2.5-0.7-3.6
	c0.8-0.8,1.6-0.7,2.5-0.7h4.5v4.5C45.6,14.6,45.8,14.6,45.2,14.4L45.2,14.4z M45.7,16.3c0.2,0,0.1,0,3,0c0.3,1,0.7,2,1,3.1
	c0,0,0,0,0,0l1.1,3.3c0,0,0,0,0,0c1.3,3.8,2.6,7.7,3.4,10.2c-1.7,0.3-3.4,0.9-4.8,1.9c0.2-1.2,0.1-2.4-0.1-3.5
	C45.6,16.5,45.8,17.4,45.7,16.3z M57.2,34.6c0.4,0.1,0.6,0.5,0.4,0.8l-3,6c-0.6,1.2-1.8,2-3.2,2c-4.7,0-5,0-5.4,0
	C46.5,37.7,51.7,33.9,57.2,34.6z M56.8,40.9c1.6,0.4,2.7,1.8,2.7,3.5c0,2-1.6,3.7-3.7,3.7c-1.8,0-3.3-1.3-3.6-3.1
	c1.7-0.3,3.1-1.3,3.9-2.8L56.8,40.9z M55.9,52.7L55.9,52.7c-4.5,0-7.9-3.5-8.3-7.6h2.9c0.3,2.7,2.6,4.7,5.4,4.7c3,0,5.4-2.4,5.4-5.4
	c0-2.4-1.5-4.4-3.7-5.1l1.3-2.6c3.1,1.2,5.2,4.3,5.2,7.7C64.1,49,60.4,52.7,55.9,52.7z"/>
</svg>
