<?xml version="1.0" encoding="utf-8"?>
<!-- Generator: Adobe Illustrator 24.0.1, SVG Export Plug-In . SVG Version: 6.00 Build 0)  -->
<svg version="1.1" id="Livello_1" xmlns="http://www.w3.org/2000/svg" xmlns:xlink="http://www.w3.org/1999/xlink" x="0px" y="0px"
	 viewBox="0 0 64.4 54.6" style="enable-background:new 0 0 64.4 54.6;" xml:space="preserve">
<style type="text/css">
	svg {
		fill: #868e96;
		width: 56px;
		height: 56px;
		-webkit-transition: fill cubic-bezier(0.25, 0.46, 0.45, 0.94) 400ms;
 		-moz-transition: fill cubic-bezier(0.25, 0.46, 0.45, 0.94) 400ms;
 		transition: fill cubic-bezier(0.25, 0.46, 0.45, 0.94) 400ms;
		}
		svg:hover {
		fill: #e657aa;
		}
</style>
<path class="st0" d="M58.3,29.2c-0.2,0-0.5-0.1-0.6-0.2c-0.5-0.4-0.5-1-0.2-1.5l1.9-2.5c0.2-0.3,0.5-0.4,0.8-0.4h3.2
	c0.6,0,1,0.5,1,1c0,0.6-0.5,1-1,1h-2.7l-1.6,2.1C58.9,29.1,58.6,29.2,58.3,29.2z"/>
<path class="st0" d="M1.2,54.4c-0.4,0-0.7-0.2-0.9-0.5c-0.1-0.2-0.2-0.5-0.1-0.8c0.1-0.3,0.2-0.5,0.5-0.6L10.8,46
	c0.2-0.1,0.4-0.2,0.6-0.2h1.8L13,45.5c-0.3-0.6-0.4-1.2-0.4-1.8c0-0.6,0.1-1.2,0.4-1.8l3.1-6.3l0.4-6.4l-0.3,0c-0.1,0-0.3,0-0.4,0
	c-0.2,0-0.4,0-0.5,0l-2.1-0.4c-1.6-0.3-2.7-1.9-2.4-3.6l1.8-10.2c0-0.3,0.2-0.5,0.4-0.7c0,0,0.1-0.1,0.1-0.1l0.2-0.1L13.3,14
	C13,13.4,13,12.7,13.1,12c0.2-1.1,0.8-2.1,1.7-2.7c0.7-0.5,1.5-0.7,2.3-0.7c0.2,0,0.5,0,0.7,0.1c1.3,0.2,2.4,1.1,3,2.3l0.1,0.2
	l0.2-0.2c0.3-0.2,0.6-0.4,1-0.6l0.3-0.1L22.2,10c-1.3-1.4-1.9-3.3-1.6-5.1C21.1,2.1,23.5,0,26.4,0c0.3,0,0.7,0,1,0.1
	c1.6,0.3,2.9,1.1,3.8,2.4c0.9,1.3,1.3,2.8,1,4.4c-0.3,1.6-1.1,2.9-2.4,3.8c-0.1,0.1-0.2,0.1-0.3,0.2l-0.2,0.2l5,4.7h1.1l-0.8-2.7
	c-0.2-0.5,0.2-1.1,0.7-1.3c0.1,0,0.2,0,0.3,0c0.5,0,0.9,0.3,1,0.7l1,3.3h0.9c1.8,0,3.2,1.4,3.2,3.2c0,1.3-0.8,2.5-2.1,3L39.3,22
	l4.5,15.5h5.8l1.8-2.4c0.2-0.3,0.5-0.4,0.8-0.4c0.2,0,0.5,0.1,0.6,0.2c0.2,0.2,0.4,0.4,0.4,0.7c0,0.3,0,0.5-0.2,0.8L51,39.2
	c-0.2,0.3-0.5,0.4-0.8,0.4H39.6l-8.5,8c-0.2,0.2-0.4,0.3-0.7,0.3H17l-0.2,0c-0.1,0-0.2,0-0.2,0h-4.9l-9.9,6.3
	C1.6,54.3,1.4,54.4,1.2,54.4z M24.4,37.4c0,0.1,0,0.2,0,0.2c0,0,0,0.1-0.1,0.1l-3.9,8.1H30l4.5-4.2l-0.3-0.1
	c-0.7-0.3-1.3-0.7-1.7-1.3l-4.3-5.5l-3.4-1.6L24.4,37.4z M18.2,36c0,0.1,0,0.3-0.1,0.4l-3.2,6.5c-0.1,0.3-0.2,0.6-0.2,0.9
	c0,0.8,0.4,1.5,1.2,1.9c0.2,0.1,0.5,0.2,0.7,0.2l0.3,0c0.8-0.1,1.4-0.5,1.7-1.2l3.7-7.6l0.3-4.4l-1.4-0.2c-0.9-0.1-1.8-0.3-2.5-0.7
	l-0.3-0.2L18.2,36z M26.9,24.4c-2.1,1.4-4.7,2.1-7.8,2.3l-0.2,0l-0.2,0.9c-0.2,1,0.3,1.9,1.2,2.4c0.4,0.2,0.8,0.3,1.2,0.3l0.3,0
	l3.7,0.6c0.1,0,0.2,0,0.3,0.1l3.8,1.8c0.1,0.1,0.3,0.2,0.4,0.3l4.5,5.7c0.4,0.5,1,0.8,1.6,0.8c0.5,0,0.9-0.2,1.3-0.4
	c0.4-0.3,0.7-0.8,0.8-1.4c0.1-0.6-0.1-1.1-0.4-1.5l-5.2-6.6l-4.6-2.2c-0.4-0.2-0.6-0.7-0.6-1.1l0.4-2.2L26.9,24.4z M29.1,26l4.1,2
	c0,0,0.1,0,0.1,0.1c0.1,0.1,0.2,0.1,0.3,0.2l5.4,6.8c0.5,0.7,0.8,1.4,0.9,2.3l0,0.2h1.8l-4.5-15.4h-7.4L29.1,26z M12.8,25.6
	c-0.1,0.6,0.2,1.2,0.8,1.2l2.1,0.4l0.1,0c0.4,0,0.8-0.3,0.9-0.7l1.6-9.3l-4-0.7L12.8,25.6z M25.4,11.8c-2.9,0-4.2,1.7-4.5,3.2
	l-1.7,9.7l0.3,0c4.5-0.3,6.8-2.1,7.8-3.1l0.2-0.2l-2.2-1.9c-0.4-0.4-0.5-1-0.1-1.5c0.2-0.2,0.5-0.4,0.8-0.4c0.2,0,0.5,0.1,0.7,0.3
	l2.6,2.3h9.1c0.6,0,1.1-0.5,1.1-1.1c0-0.6-0.5-1.1-1.1-1.1h-4.5c-0.3,0-0.5-0.1-0.7-0.3L28,12.7c-0.6-0.6-1.5-1-2.4-1L25.4,11.8z
	 M17.1,10.5c-0.4,0-0.8,0.1-1.1,0.4c-0.5,0.3-0.8,0.8-0.9,1.4c-0.2,1.2,0.6,2.3,1.7,2.5c0.1,0,0.2,0,0.4,0c0.4,0,0.8-0.1,1.1-0.4
	c0.5-0.3,0.8-0.8,0.9-1.4c0.2-1.2-0.6-2.3-1.7-2.5C17.4,10.6,17.3,10.5,17.1,10.5z M26.4,2.1c-1.9,0-3.5,1.3-3.8,3.2
	c-0.2,1,0.1,2,0.6,2.9c0.6,0.8,1.5,1.4,2.5,1.6c0.2,0,0.4,0.1,0.6,0.1c1.9,0,3.5-1.3,3.8-3.2c0.2-1-0.1-2-0.6-2.9
	c-0.6-0.8-1.5-1.4-2.5-1.6C26.8,2.1,26.6,2.1,26.4,2.1z"/>
<path class="st0" d="M55.2,32.9c-0.2,0-0.4-0.1-0.6-0.2c-0.3-0.3-0.5-0.7-0.4-1.1c0.1-0.4,0.5-0.7,0.9-0.8c0,0,0,0,0,0
	c0.5,0,0.9,0.3,1,0.6c0.2,0.4,0,1-0.4,1.3C55.6,32.9,55.4,32.9,55.2,32.9L55.2,32.9z"/>
</svg>
