<?xml version="1.0" encoding="utf-8"?>
<!-- Generator: Adobe Illustrator 24.0.1, SVG Export Plug-In . SVG Version: 6.00 Build 0)  -->
<svg version="1.1" id="Livello_1" xmlns="http://www.w3.org/2000/svg" xmlns:xlink="http://www.w3.org/1999/xlink" x="0px" y="0px"
	 viewBox="0 0 47.3 54.6" style="enable-background:new 0 0 47.3 54.6;" xml:space="preserve">
<style type="text/css">
		svg {
		fill: #868e96;
		width: auto;
		height: 56px;
		-webkit-transition: fill cubic-bezier(0.25, 0.46, 0.45, 0.94) 400ms;
 		-moz-transition: fill cubic-bezier(0.25, 0.46, 0.45, 0.94) 400ms;
 		transition: fill cubic-bezier(0.25, 0.46, 0.45, 0.94) 400ms;
		}
		svg:hover {
		fill: #e657aa;
		}
</style>
<g>
	<path class="st0" d="M34.9,24c0,0-0.5-3.9-4.6-3.9c-4.2,0-7,0.5-7,2.8s8.1,2.3,11.2,3.2c3.1,0.9,5.8,3.3,4.4,7.4
		c-1.4,4.2-5.5,4.6-11.9,4.6s-7.9-5.3-7.9-7.4h3.6c0,0-0.5,3.3,3.8,3.8c4.2,0.5,8.3,0.8,8.9-2.4c0.7-4.3-13.7-2.2-15-6.4
		c-1.1-3.6-0.5-8.3,6.8-9c7.2-0.7,11.2,2.5,11.2,7.2L34.9,24z"/>
	<path class="st0" d="M0,41l8,4.6c4,2.3,9-0.6,9-5.2v-8.1V17.4h-3.3v22.1c0,2.5-2.7,4.1-4.9,2.8l-5.6-3.2V15.5L23.6,3.8L44,15.5
		v23.5L23.6,50.8l-5.9-3.4L13.9,49l9.7,5.6l23.6-13.7V13.7L23.6,0L0,13.7L0,41L0,41L0,41z"/>
</g>
</svg>
