<?xml version="1.0" encoding="utf-8"?>
<!-- Generator: Adobe Illustrator 24.0.1, SVG Export Plug-In . SVG Version: 6.00 Build 0)  -->
<svg version="1.1" id="Livello_1" xmlns="http://www.w3.org/2000/svg" xmlns:xlink="http://www.w3.org/1999/xlink" x="0px" y="0px"
	 viewBox="0 0 56 54.6" style="enable-background:new 0 0 56 54.6;" xml:space="preserve">
	 	<style type="text/css">
		svg {
		fill: #868e96;
		width: 56px;
		height: 56px;
		-webkit-transition: fill cubic-bezier(0.25, 0.46, 0.45, 0.94) 400ms;
 		-moz-transition: fill cubic-bezier(0.25, 0.46, 0.45, 0.94) 400ms;
 		transition: fill cubic-bezier(0.25, 0.46, 0.45, 0.94) 400ms;
		}
		svg:hover {
		fill: #e657aa;
		}
	</style>
<g>
	<path d="M52.7,2.6C51,0.9,48.8,0,46.5,0c-2.4,0-4.6,0.9-6.3,2.6c-0.7,0.7-1.7,1.8-3.1,3.4c-2.9,3.3-7.8,8.8-14.7,15.7
		S10,33.5,6.7,36.4c-1.6,1.4-2.7,2.4-3.4,3.1c-3.5,3.5-3.5,9.1,0,12.5c1.7,1.7,3.9,2.6,6.3,2.6s4.6-0.9,6.3-2.6
		c0.7-0.7,1.7-1.8,3.1-3.4c2.9-3.3,7.8-8.8,14.7-15.7C40.5,26,46,21.1,49.3,18.2c1.6-1.4,2.7-2.4,3.4-3.1c1.7-1.7,2.6-3.9,2.6-6.3
		C55.3,6.5,54.4,4.3,52.7,2.6 M32.3,15.4c0.5,0,1,0.1,1.5,0.4L29.6,20c-0.6-1.1-0.5-2.5,0.3-3.4c0.1-0.1,0.2-0.2,0.3-0.3
		C30.7,15.7,31.5,15.4,32.3,15.4 M39.1,25.1c-0.1,0.1-0.2,0.2-0.3,0.3c-0.6,0.5-1.2,0.7-2,0.7s-1.6-0.3-2.2-0.9l-4-4l4.3-4.3l4,4
		C40.2,22,40.2,23.9,39.1,25.1 M19.1,28.5c0.5,0,1,0.1,1.5,0.4l-4.2,4.2c-0.2-0.4-0.4-0.9-0.4-1.5c0-0.8,0.3-1.5,0.8-2.1
		c0.1-0.1,0.2-0.2,0.3-0.3C17.7,28.8,18.4,28.5,19.1,28.5 M26.1,38.2c-0.1,0.1-0.2,0.2-0.3,0.3c-0.6,0.5-1.3,0.8-2.1,0.8
		c-0.8,0-1.6-0.3-2.2-0.9l-4-4l4.3-4.3l4,4C27,35.2,27.1,37,26.1,38.2 M17.6,47.5c-1.4,1.5-2.4,2.7-3,3.3c-1.3,1.3-3.1,2.1-5,2.1
		s-3.7-0.7-5-2.1c-2.8-2.8-2.8-7.3,0-10.1c0.6-0.6,1.8-1.6,3.3-3c1.6-1.5,3.8-3.4,6.5-5.9c0.1,0.9,0.3,1.7,0.8,2.4l-0.3,0.3
		c-0.3,0.3-0.3,0.9,0,1.2c0.2,0.2,0.4,0.3,0.6,0.3c0.2,0,0.4-0.1,0.6-0.3l0.2-0.2l4,4c0.8,0.8,1.9,1.3,3.1,1.4
		C21,43.6,19,45.8,17.6,47.5 M32.4,31.7c-1.4,1.4-2.7,2.7-3.9,3.9c-0.1-1-0.6-2-1.4-2.8l-4-4l0.2-0.2c0.3-0.3,0.3-0.9,0-1.2
		c-0.3-0.3-0.9-0.3-1.2,0l-0.3,0.3c-0.6-0.4-1.4-0.7-2.2-0.8c1.3-1.2,2.6-2.5,3.9-3.9c1.4-1.4,2.7-2.7,3.9-3.9
		c0.1,0.8,0.4,1.5,0.8,2.2L28,21.4c-0.3,0.3-0.3,0.9,0,1.2c0.2,0.2,0.4,0.3,0.6,0.3s0.4-0.1,0.6-0.3l0.2-0.2l4,4
		c0.8,0.8,1.8,1.3,2.8,1.4C35.1,29,33.7,30.3,32.4,31.7 M51.5,13.9c-0.6,0.6-1.8,1.6-3.3,3c-1.6,1.5-3.8,3.4-6.5,5.9
		c-0.1-1.1-0.5-2.2-1.4-3.1l-4-4l0.2-0.2c0.3-0.3,0.3-0.9,0-1.2s-0.9-0.3-1.2,0L35,14.5c-0.7-0.5-1.6-0.8-2.4-0.8
		C35,11,37,8.8,38.4,7.1c1.4-1.6,2.4-2.7,3-3.3c1.3-1.3,3.1-2.1,5-2.1s3.7,0.7,5,2.1c1.3,1.3,2.1,3.1,2.1,5
		C53.6,10.8,52.8,12.5,51.5,13.9"/>
	<path d="M24.3,34.4L22,36.7c-0.3,0.3-0.3,0.9,0,1.2c0.2,0.2,0.4,0.3,0.6,0.3s0.4-0.1,0.6-0.3l2.3-2.3c0.3-0.3,0.3-0.9,0-1.2
		C25.1,34.1,24.6,34.1,24.3,34.4"/>
	<path d="M37.4,21.3l-2.3,2.3c-0.3,0.3-0.3,0.9,0,1.2c0.2,0.2,0.4,0.3,0.6,0.3c0.2,0,0.4-0.1,0.6-0.3l2.3-2.3c0.3-0.3,0.3-0.9,0-1.2
		C38.3,20.9,37.7,20.9,37.4,21.3"/>
</g>
</svg>
