<?xml version="1.0" encoding="utf-8"?>
<!-- Generator: Adobe Illustrator 24.0.1, SVG Export Plug-In . SVG Version: 6.00 Build 0)  -->
<svg version="1.1" id="Livello_1" xmlns="http://www.w3.org/2000/svg" xmlns:xlink="http://www.w3.org/1999/xlink" x="0px" y="0px"
	 viewBox="0 0 56 54.6" style="enable-background:new 0 0 56 54.6;" xml:space="preserve">
	<style type="text/css">
		svg {
		fill: #868e96;
		width: 56px;
		height: 56px;
		-webkit-transition: fill cubic-bezier(0.25, 0.46, 0.45, 0.94) 400ms;
 		-moz-transition: fill cubic-bezier(0.25, 0.46, 0.45, 0.94) 400ms;
 		transition: fill cubic-bezier(0.25, 0.46, 0.45, 0.94) 400ms;
		}
		svg:hover {
		fill: #e657aa;
		}
	</style>
<path class="st0" d="M0.7,27.3v27.3h54.6V0H0.7V27.3z M44.7,25.1c1.4,0.3,2.4,1,3.4,2c0.5,0.5,1.2,1.5,1.3,1.8
	c0,0.1-2.4,1.7-3.8,2.6c-0.1,0-0.3-0.2-0.5-0.5c-0.7-1-1.4-1.5-2.6-1.5c-1.7-0.1-2.7,0.8-2.7,2.2c0,0.4,0.1,0.7,0.2,1
	c0.4,0.8,1,1.2,3.2,2.1c3.9,1.7,5.6,2.8,6.6,4.4c1.2,1.8,1.4,4.6,0.6,6.7c-0.9,2.3-3,3.8-6,4.3c-0.9,0.2-3.2,0.1-4.2,0
	c-2.2-0.4-4.3-1.5-5.6-2.9c-0.5-0.6-1.5-2-1.4-2.1c0,0,0.3-0.2,0.5-0.3l2-1.2l1.6-0.9l0.3,0.5c0.5,0.7,1.5,1.7,2.1,2
	c1.7,0.9,4.1,0.8,5.3-0.3c0.5-0.5,0.7-0.9,0.7-1.6c0-0.6-0.1-0.9-0.4-1.4c-0.4-0.6-1.3-1.1-3.8-2.2c-2.8-1.2-4-2-5.1-3.2
	c-0.6-0.7-1.2-1.8-1.5-2.7c-0.2-0.8-0.3-2.7-0.1-3.5c0.6-2.7,2.6-4.6,5.6-5.2C41.5,24.8,43.8,24.9,44.7,25.1L44.7,25.1z M31.9,27.4
	l0,2.2h-7.1v20.2h-5V29.6h-7.1v-2.2l0.1-2.3c0,0,4.4-0.1,9.6,0l9.5,0L31.9,27.4z"/>
</svg>
